<?xml version="1.0"?>
<svg width="320" height="200" xmlns="http://www.w3.org/2000/svg" xmlns:svg="http://www.w3.org/2000/svg" xmlns:xlink="http://www.w3.org/1999/xlink">
 <!-- Created with SVG-edit - https://github.com/SVG-Edit/svgedit-->
 <defs>
  <symbol enable-background="new 0 0 612 792" height="792px" id="svg_6" version="1.1" viewBox="0 0 612 792" width="612px" x="0px" xml:space="preserve" xmlns="http://www.w3.org/2000/svg" xmlns:xlink="http://www.w3.org/1999/xlink" y="0px">
   <g>
    <g>
     <defs>
      <rect height="279" id="svg_5" width="508" x="52" y="256.5"/>
     </defs>
     <clipPath id="svg_2">
      <use overflow="visible" xlink:href="#svg_5"/>
     </clipPath>
     <path clip-path="url(#svg_2)" clip-rule="evenodd" d="m75.18,322.46c-1.01,1.94 -3.1,5.83 -5.12,10.44c-2.23,7.27 -8.06,15.34 -12.45,43.06c17.13,-1.37 333.14,15.84 343.51,14.83c16.85,-0.43 17.06,-0.43 17.06,-0.43s10.16,2.08 14.33,-1.52c-9.5,-2.08 -19.73,-5.32 -31.25,-8.56c-114.4,-32.19 -177.33,-53.64 -204.26,-73.88c-12.02,-10.08 -24.26,-19.22 -49.25,-23.61c0,0 -24.48,-1.95 -42.48,10.08c0,0 -19.15,7.63 -30.09,29.59l0,0z" fill="#B9E5FB" fill-rule="evenodd" stroke="#000000" stroke-miterlimit="2.61" stroke-width="0.36"/>
     <path clip-path="url(#svg_2)" clip-rule="evenodd" d="m470.46,396.26c30.24,4.03 42.76,3.38 63.79,3.67c25.56,0.43 -0.07,2.31 -9.15,4.68c-3.38,0.87 -1.29,1.95 5.84,2.88c8.92,1.23 1.08,1.95 -1.95,2.31c-5.83,0.79 -1.01,2.3 10.87,4.89c11.31,2.45 1.3,3.46 -2.88,4.32c-5.25,1.15 -10.22,3.03 -8.13,3.39c14.61,2.23 -1.37,4.03 1.15,5.18c7.49,3.46 15.77,4.1 11.95,5.83c-3.6,1.66 -9.21,2.59 -17.49,6.77c-4.4,2.23 4.24,2.3 11.3,6.77c5.26,3.31 -9.36,9.36 -12.17,11.52c-5.04,3.89 19.66,5.83 11.67,11.3c-5.91,3.17 -10.73,4.39 -16.71,10.87c-3.67,4.83 11.31,10.3 7.49,15.41c-5.4,7.2 -12.46,2.81 -19.94,19.59c-7.85,11.08 -24.05,11.95 -28.66,13.32c-18.5,4.75 -48.17,5.04 -80.64,2.44c-22.61,-1.87 -112.82,-1.44 -174.74,-0.64c-62.07,-7.28 -90.51,-22.18 -122.84,-51.27c-35.2,-28.44 -46.15,-80.71 -41.76,-103.53c1.59,-8.21 92.16,71.42 163.08,86.83c69.56,15.05 238.83,-40.18 239.26,-40.97c12.31,-9.65 21.02,-15.62 10.66,-25.56l0,0z" fill="#00655D" fill-rule="evenodd"/>
     <path clip-path="url(#svg_2)" clip-rule="evenodd" d="m66.82,341.97c0,0 1.73,-4.89 3.03,-7.49c27.57,-0.36 47.09,2.52 66.31,8.86c19.15,6.41 65.95,14.4 84.74,15.19c18.8,0.79 182.6,25.35 192.17,25.35c9.22,2.37 16.85,4.32 16.85,4.32c-5.18,2.01 -42.62,21.16 -166.61,-2.02c-39.6,-6.05 -117.57,-30.46 -135.21,-32.4c-27.58,-4.03 -46.08,-12.17 -61.28,-11.81l0,0z" fill="#B9E5FB" fill-rule="evenodd"/>
     <path clip-path="url(#svg_2)" clip-rule="evenodd" d="m127.95,357.24c-27.93,-4.61 -46.37,-14.69 -61.56,-14.26c0,0 1.95,-4.97 3.1,-7.42c27.36,-0.21 47.01,3.96 66.17,10.59c20.08,7.41 67.32,15.33 86.11,16.13c18.21,0.79 186.26,24.91 193.32,22.24c9.14,2.38 16.34,4.18 16.34,4.18c-3.89,3.82 -40.39,24.12 -167.69,1.01c-40.24,-5.83 -117.14,-29.67 -135.79,-32.47l0,0z" fill="#B5DEF1" fill-rule="evenodd"/>
     <path clip-path="url(#svg_2)" clip-rule="evenodd" d="m127.66,360.62c-28.36,-5.26 -46.58,-16.92 -61.77,-16.49c0,0 2.01,-5.11 3.24,-7.63c27.07,0 46.87,5.4 65.95,12.31c21.02,8.35 68.69,16.35 87.48,17.21c17.57,0.72 189.5,24.19 193.97,18.86c9.07,2.31 16.85,4.61 16.85,4.61c-2.6,5.62 -38.74,26.71 -169.28,3.75c-40.96,-5.69 -116.71,-28.88 -136.44,-32.62l0,0z" fill="#B0DAEB" fill-rule="evenodd"/>
     <path clip-path="url(#svg_2)" clip-rule="evenodd" d="m127.45,364c-28.8,-5.9 -46.66,-19.15 -61.85,-18.79c0,0 1.87,-5.04 3.1,-7.63c26.78,0.22 46.8,6.77 65.88,13.82c21.96,9.44 70.05,17.5 88.84,18.29c16.92,0.72 192.89,23.69 194.76,15.77c9,2.3 17.28,4.32 17.28,4.32c-1.29,7.49 -37.15,29.88 -170.92,6.98c-41.69,-5.54 -116.36,-28.15 -137.09,-32.76l0,0z" fill="#ACD4E5" fill-rule="evenodd"/>
     <path clip-path="url(#svg_2)" clip-rule="evenodd" d="m127.16,367.39c-29.16,-6.55 -46.94,-21.39 -62.14,-20.95c0,0 1.95,-5.19 3.17,-7.85c26.57,0.43 46.8,8.13 65.81,15.48c22.9,10.44 71.42,18.5 90.22,19.29c16.34,0.72 196.34,23.12 195.69,12.53c8.93,2.23 17.57,4.39 17.57,4.39c0,9.29 -35.5,32.76 -172.58,9.94c-42.34,-5.33 -115.92,-27.36 -137.74,-32.83l0,0z" fill="#A8CFDF" fill-rule="evenodd"/>
     <path clip-path="url(#svg_2)" clip-rule="evenodd" d="m126.94,370.77c-29.59,-7.2 -47.01,-23.9 -62.2,-23.47c0,0 1.87,-4.9 3.09,-7.63c26.21,0.65 46.66,9.5 65.67,17.06c23.83,11.38 72.72,19.51 91.51,20.31c15.77,0.64 199.87,22.6 196.63,9.28c8.86,2.24 17.78,4.32 17.78,4.32c1.3,11.09 -33.76,35.79 -174.09,13.11c-43.06,-5.26 -115.49,-26.64 -138.39,-32.98l0,0z" fill="#A3CCDA" fill-rule="evenodd"/>
     <path clip-path="url(#svg_2)" clip-rule="evenodd" d="m126.73,374.16c-29.95,-7.85 -47.23,-25.92 -62.43,-25.56c0,0 1.88,-5.04 3.1,-7.85c25.99,0.86 46.66,10.87 65.59,18.65c24.77,12.38 74.09,20.52 92.88,21.31c15.12,0.65 203.26,22.1 197.43,6.12c8.85,2.23 18,4.25 18,4.25c2.59,12.88 -31.97,38.8 -175.54,16.2c-43.7,-5.12 -115.06,-25.92 -139.03,-33.12l0,0z" fill="#9FC7D5" fill-rule="evenodd"/>
     <path clip-path="url(#svg_2)" clip-rule="evenodd" d="m126.44,377.54c-30.38,-8.5 -47.3,-28.15 -62.5,-27.72c0,0 1.73,-5.26 2.96,-8.14c25.77,1.08 46.58,12.32 65.59,20.38c25.63,13.39 75.38,21.53 94.17,22.32c14.48,0.65 206.79,21.53 198.36,2.88c8.72,2.16 18.15,3.74 18.15,3.74c3.89,14.62 -30.17,42.27 -177.05,19.73c-44.42,-4.89 -114.62,-25.05 -139.68,-33.19l0,0z" fill="#98C1CF" fill-rule="evenodd"/>
     <path clip-path="url(#svg_2)" clip-rule="evenodd" d="m126.22,380.92c-30.74,-9.14 -47.52,-30.24 -62.71,-29.8c0,0 1.8,-5.55 3.03,-8.5c25.48,1.3 46.51,13.82 65.44,22.1c26.57,14.4 76.76,22.54 95.55,23.4c13.89,0.58 210.24,20.88 199.29,-0.43c8.64,2.16 18.22,3.67 18.22,3.67c5.18,16.49 -28.37,45.29 -178.49,22.9c-45.14,-4.75 -114.26,-24.34 -140.33,-33.34l0,0z" fill="#94BEC9" fill-rule="evenodd"/>
     <path clip-path="url(#svg_2)" clip-rule="evenodd" d="m66.1,343.63c25.13,1.44 46.37,15.12 65.38,23.69c27.43,15.33 78.05,23.68 96.84,24.48c13.32,0.57 213.77,20.37 200.23,-3.6c8.64,2.08 18.29,3.45 18.29,3.45c6.48,18.29 -26.5,48.46 -179.86,26.14c-45.86,-4.61 -113.83,-23.62 -141.04,-33.48c-31.18,-9.79 -47.6,-32.62 -62.72,-32.19c0,0 1.66,-5.47 2.88,-8.49l0,0z" fill="#90B9C4" fill-rule="evenodd"/>
     <path clip-path="url(#svg_2)" clip-rule="evenodd" d="m125.72,387.69c-31.54,-10.44 -47.74,-34.85 -62.93,-34.41c0,0 1.51,-5.26 2.81,-8.43c24.91,1.73 46.44,16.42 65.3,25.13c28.44,16.42 79.42,24.7 98.28,25.49c12.6,0.5 216.44,19.51 200.38,-7.06c8.5,2.02 19.15,3.75 19.15,3.75c7.85,20.08 -24.69,51.33 -181.37,29.08c-46.51,-4.39 -113.4,-22.82 -141.62,-33.55l0,0z" fill="#8CB5BF" fill-rule="evenodd"/>
     <path clip-path="url(#svg_2)" clip-rule="evenodd" d="m125.5,391.08c-31.96,-11.09 -47.8,-36.87 -63,-36.51c0,0 1.52,-5.4 2.74,-8.57c24.7,1.95 46.3,17.64 65.16,26.64c29.38,17.43 80.78,25.71 99.58,26.5c12.02,0.5 220.17,18.72 201.45,-10.44c8.5,2.02 19.15,3.96 19.15,3.96c9.08,21.89 -22.89,54.22 -182.8,32.11c-47.24,-4.25 -112.97,-22.1 -142.28,-33.69l0,0z" fill="#88B2BB" fill-rule="evenodd"/>
     <path clip-path="url(#svg_2)" clip-rule="evenodd" d="m125.22,394.46c-32.33,-11.66 -47.81,-39.17 -63,-38.74c0,0 1.22,-5.25 2.52,-8.42c24.4,2.09 46.29,18.79 65.08,28.01c30.24,18.36 82.16,26.71 100.95,27.5c11.45,0.51 223.63,18.36 202.39,-13.46c8.42,1.94 19.22,3.81 19.22,3.81c10.44,23.62 -21.09,57.1 -184.24,35.14c-47.88,-4.18 -112.54,-21.31 -142.92,-33.84l0,0z" fill="#84AEB6" fill-rule="evenodd"/>
     <path clip-path="url(#svg_2)" clip-rule="evenodd" d="m125,397.84c-32.76,-12.31 -47.88,-41.47 -63.07,-41.11c0,0 1.22,-5.25 2.52,-8.57c24.12,2.38 46.08,20.31 64.87,29.81c31.18,19.37 83.52,27.72 102.31,28.51c10.8,0.51 227.02,17.5 203.26,-16.99c8.28,2.02 19.51,4.11 19.51,4.11c11.66,25.41 -19.37,60.12 -185.83,38.23c-48.6,-4.03 -112.11,-20.59 -143.57,-33.99l0,0z" fill="#80A9B1" fill-rule="evenodd"/>
     <path clip-path="url(#svg_2)" clip-rule="evenodd" d="m124.71,401.23c-33.19,-12.96 -48.02,-43.78 -63.21,-43.35c0,0 1.22,-4.96 2.52,-8.42c23.9,2.52 46,21.46 64.8,31.1c32.04,20.45 84.81,28.8 103.6,29.67c10.16,0.43 230.69,16.92 204.27,-20.23c8.28,1.94 19.22,3.6 19.22,3.6c12.96,27.28 -17.28,63.5 -186.98,41.68c-49.25,-3.81 -111.75,-19.8 -144.22,-34.05l0,0z" fill="#7CA6AD" fill-rule="evenodd"/>
     <path clip-path="url(#svg_2)" clip-rule="evenodd" d="m124.5,404.61c-33.56,-13.61 -48.03,-46.15 -63.22,-45.72c0,0 1.15,-4.97 2.38,-8.42c23.61,2.81 45.86,22.89 64.65,32.76c32.98,21.38 86.11,29.88 104.98,30.67c9.57,0.36 234.07,16.27 205.13,-23.54c8.85,2.08 19.36,3.74 19.36,3.74c14.33,29.09 -15.48,66.38 -188.42,44.71c-49.97,-3.67 -111.31,-19.08 -144.86,-34.2l0,0z" fill="#78A2A9" fill-rule="evenodd"/>
     <path clip-path="url(#svg_2)" clip-rule="evenodd" d="m124.28,408c-33.98,-14.26 -48.17,-48.03 -63.36,-47.6c0,0 1.15,-5.25 2.38,-8.78c23.32,2.95 45.79,24.12 64.51,34.27c33.91,22.32 87.48,30.89 106.27,31.68c9,0.36 237.46,15.55 205.92,-26.93c8.14,1.88 19.66,3.82 19.66,3.82c15.62,30.96 -13.61,69.48 -189.94,47.88c-50.62,-3.53 -110.81,-18.36 -145.44,-34.34l0,0z" fill="#749EA4" fill-rule="evenodd"/>
     <path clip-path="url(#svg_2)" clip-rule="evenodd" d="m123.99,411.38c-34.34,-14.9 -48.17,-50.18 -63.36,-49.75c0,0 1.08,-5.33 2.31,-8.86c23.11,3.17 45.57,25.42 64.29,35.79c34.85,23.32 88.85,31.89 107.64,32.68c8.35,0.36 241.06,15.2 206.93,-29.95c8.14,1.87 19.58,3.39 19.58,3.39c16.92,32.68 -11.73,72.64 -191.3,51.12c-51.26,-3.32 -110.38,-17.5 -146.09,-34.42l0,0z" fill="#709CA0" fill-rule="evenodd"/>
     <path clip-path="url(#svg_2)" clip-rule="evenodd" d="m60.2,363c0,0 1.08,-5.33 2.3,-9c22.83,3.45 45.44,26.56 64.23,37.15c35.78,24.41 90.21,33.05 109.01,33.84c7.7,0.29 244.44,14.69 207.79,-33.19c7.99,1.8 19.73,3.31 19.73,3.31c18.14,34.56 -9.94,75.67 -192.75,54.29c-51.98,-3.24 -110.01,-16.85 -146.81,-34.64c-34.77,-15.62 -48.31,-52.12 -63.5,-51.76l0,0z" fill="#6A979A" fill-rule="evenodd"/>
     <path clip-path="url(#svg_2)" clip-rule="evenodd" d="m123.49,418.15c-35.14,-16.2 -48.24,-54.58 -63.51,-54.15c0,0 1.08,-5.32 2.38,-8.92c22.54,3.67 45.14,27.93 63.79,38.8c36.72,25.28 91.59,33.92 110.38,34.71c7.13,0.36 247.89,13.89 208.65,-36.58c7.92,1.8 19.88,3.53 19.88,3.53c19.51,36.36 -8.07,78.62 -194.19,57.31c-52.63,-3.09 -109.58,-16.05 -147.38,-34.7l0,0z" fill="#699496" fill-rule="evenodd"/>
     <path clip-path="url(#svg_2)" clip-rule="evenodd" d="m123.27,421.53c-35.57,-16.85 -48.31,-56.66 -63.5,-56.23c0,0 1.01,-5.47 2.3,-9c22.25,3.82 45,29.09 63.58,40.18c37.65,26.35 92.95,34.99 111.74,35.78c6.48,0.29 250.99,12.53 209.23,-40.61c8.21,1.8 20.16,4.18 20.16,4.18c20.81,38.16 -6.12,81.72 -195.48,60.48c-53.35,-2.88 -109.15,-15.27 -148.03,-34.78l0,0z" fill="#629193" fill-rule="evenodd"/>
     <path clip-path="url(#svg_2)" clip-rule="evenodd" d="m123.06,424.92c-36,-17.5 -48.32,-58.9 -63.51,-58.54c0,0 1.01,-5.4 2.23,-8.86c21.96,4.04 44.79,30.32 63.44,41.62c38.52,27.36 94.17,36.07 112.96,36.86c5.26,0.22 256.61,14.48 210.17,-43.84c7.85,1.72 20.31,3.74 20.31,3.74c22.1,39.96 -4.32,85.03 -196.92,63.94c-54.08,-2.74 -108.72,-14.55 -148.68,-34.92l0,0z" fill="#5E8D8E" fill-rule="evenodd"/>
     <path clip-path="url(#svg_2)" clip-rule="evenodd" d="m122.77,428.3c-36.36,-18.14 -48.24,-61.2 -63.43,-60.84c0,0 0.86,-5.47 2.08,-8.86c21.75,4.25 44.57,31.61 63.22,43.2c39.46,28.3 95.54,37.08 114.34,37.88c5.32,0.21 257.4,11.08 210.45,-47.31c7.78,1.66 20.88,3.82 20.88,3.82c23.4,41.83 -2.37,88.13 -198.21,67.17c-54.72,-2.59 -108.29,-13.75 -149.33,-35.06l0,0z" fill="#5A898A" fill-rule="evenodd"/>
     <path clip-path="url(#svg_2)" clip-rule="evenodd" d="m122.55,431.68c-36.79,-18.79 -48.24,-63.36 -63.43,-63c0,0 0.72,-5.4 1.87,-8.71c21.46,4.47 44.57,32.69 63.15,44.5c40.39,29.3 96.91,38.09 115.7,38.88c4.68,0.21 260.78,10.51 211.25,-50.55c7.7,1.59 20.95,3.68 20.95,3.68c24.7,43.56 -0.36,91.29 -199.51,70.41c-55.44,-2.45 -107.86,-13.03 -149.98,-35.21l0,0z" fill="#558787" fill-rule="evenodd"/>
     <path clip-path="url(#svg_2)" clip-rule="evenodd" d="m122.26,435.07c-37.15,-19.44 -48.24,-65.59 -63.43,-65.16c0,0 1.73,-9.65 2.88,-12.89c21.17,4.68 43.27,38.09 61.85,50.11c41.33,30.31 98.28,39.1 117.07,39.89c4.03,0.22 264.03,9.72 211.97,-54.07c8.06,1.73 21.24,3.81 21.24,3.81c25.99,45.44 1.44,94.4 -200.95,73.59c-56.16,-2.23 -107.5,-12.24 -150.63,-35.28l0,0z" fill="#508484" fill-rule="evenodd"/>
     <path clip-path="url(#svg_2)" clip-rule="evenodd" d="m122.05,438.45c-37.59,-20.09 -48.03,-67.68 -63.29,-67.32c0,0 0.58,-5.69 1.73,-8.85c20.95,4.89 44.06,35.2 62.57,47.44c42.26,31.4 99.64,40.18 118.44,40.97c3.38,0.15 267.48,9.22 212.83,-57.17c7.56,1.59 21.24,3.46 21.24,3.46c27.36,47.23 3.38,97.56 -202.25,76.9c-56.81,-2.09 -107.06,-11.52 -151.27,-35.43l0,0z" fill="#4C8180" fill-rule="evenodd"/>
     <path clip-path="url(#svg_2)" clip-rule="evenodd" d="m121.83,441.84c-37.94,-20.74 -48.09,-70.06 -63.29,-69.63c0,0 0.51,-5.4 1.66,-8.49c20.66,5.04 43.85,36.21 62.35,48.67c43.2,32.33 100.95,41.18 119.81,42.05c2.81,0.07 270.86,8.49 213.62,-60.63c7.92,1.66 21.53,3.53 21.53,3.53c28.59,49.03 5.19,100.66 -203.76,80.06c-57.53,-2.01 -106.63,-10.8 -151.92,-35.56l0,0z" fill="#477E7D" fill-rule="evenodd"/>
     <path clip-path="url(#svg_2)" clip-rule="evenodd" d="m59.91,364.94c20.38,5.26 43.56,37.44 62.14,50.11c44.06,33.41 102.31,42.34 121.1,43.13c2.23,0.07 274.18,7.78 214.35,-64.01c7.41,1.51 21.6,3.39 21.6,3.39c29.95,50.9 7.27,103.89 -204.92,83.44c-58.24,-1.8 -106.2,-10 -152.64,-35.71c-38.37,-21.38 -48.16,-72.07 -63.28,-71.64c0,0 0.79,-5.69 1.65,-8.71l0,0z" fill="#427B7A" fill-rule="evenodd"/>
     <path clip-path="url(#svg_2)" clip-rule="evenodd" d="m121.33,448.6c-38.74,-22.03 -48.17,-74.23 -63.43,-73.87c0,0 0.72,-5.69 1.8,-8.64c20.08,5.47 43.34,38.67 61.84,51.63c44.93,34.34 103.61,43.27 122.4,44.06c1.59,0.07 277.56,7.13 215.14,-67.25c7.34,1.44 21.82,3.24 21.82,3.24c31.24,52.63 9.07,106.99 -206.36,86.62c-58.89,-1.66 -105.76,-9.22 -153.21,-35.79l0,0z" fill="#3E7876" fill-rule="evenodd"/>
     <path clip-path="url(#svg_2)" clip-rule="evenodd" d="m121.04,451.99c-39.17,-22.68 -48.1,-76.39 -63.29,-75.96c0,0 0.58,-6.05 1.66,-8.93c19.87,5.76 43.13,40.03 61.63,53.28c45.79,35.28 104.9,44.28 123.7,45.07c0.93,0.07 280.94,6.34 216,-70.77c7.27,1.44 21.6,3.02 21.6,3.02c32.54,54.5 11.3,110.52 -207.44,90.22c-59.61,-1.52 -105.33,-8.5 -153.86,-35.93l0,0z" fill="#387673" fill-rule="evenodd"/>
     <path clip-path="url(#svg_2)" clip-rule="evenodd" d="m120.82,455.37c-39.6,-23.33 -48.02,-78.69 -63.21,-78.33c0,0 0.65,-5.91 1.65,-8.72c19.66,5.91 42.77,41.26 61.28,54.72c46.72,36.29 106.27,45.29 125.06,46.08c0.36,0 284.33,5.69 216.79,-74.01c7.2,1.37 21.82,2.95 21.82,2.95c33.77,56.38 13.1,113.54 -208.87,93.31c-60.27,-1.29 -104.98,-7.7 -154.52,-36l0,0z" fill="#327370" fill-rule="evenodd"/>
     <path clip-path="url(#svg_2)" clip-rule="evenodd" d="m120.61,458.83c-39.39,-23.62 -47.88,-80.79 -63.15,-80.43c0,0 0.58,-6.12 1.59,-8.85c19.37,6.12 42.55,42.48 60.98,56.16c47.67,37.37 107.64,46.37 126.43,47.16c-0.28,0 287.64,5.04 217.59,-77.33c7.13,1.37 21.96,2.95 21.96,2.95c35.06,58.11 14.97,116.57 -210.24,96.48c-60.99,-1.15 -104.55,-6.98 -155.16,-36.14l0,0z" fill="#2C716D" fill-rule="evenodd"/>
     <path clip-path="url(#svg_2)" clip-rule="evenodd" d="m120.32,462.21c-40.39,-24.55 -47.74,-82.94 -62.93,-82.51c0,0 0.51,-6.41 1.44,-9.07c19.08,6.33 42.19,43.85 60.63,57.74c48.6,38.31 108.93,47.38 127.72,48.17c-0.86,0 291.03,4.25 218.38,-80.78c7.06,1.29 22.1,2.73 22.1,2.73c36.36,59.98 17,120.03 -211.53,100.01c-61.63,-1.01 -104.11,-6.26 -155.81,-36.29l0,0z" fill="#1F6F69" fill-rule="evenodd"/>
     <path clip-path="url(#svg_2)" clip-rule="evenodd" d="m120.1,465.6c-40.75,-25.2 -47.73,-85.18 -62.92,-84.82c0,0 0.57,-6.34 1.51,-8.93c18.79,6.55 41.9,45.07 60.26,59.19c49.54,39.31 110.31,48.45 129.1,49.24c-1.44,-0.07 294.41,3.46 219.17,-84.24c6.98,1.3 22.17,2.67 22.17,2.67c37.66,61.7 18.94,123.19 -212.83,103.32c-62.35,-0.94 -103.68,-5.47 -156.46,-36.43l0,0z" fill="#166C66" fill-rule="evenodd"/>
     <path clip-path="url(#svg_2)" clip-rule="evenodd" d="m119.82,468.98c-41.19,-25.85 -47.52,-87.41 -62.72,-86.98c0,0 0.29,-6.33 1.23,-8.92c18.5,6.84 41.69,46.22 60.05,60.62c50.47,40.32 111.67,49.46 130.46,50.26c-2.09,-0.08 297.5,2.66 219.74,-87.7c6.92,1.3 22.47,2.59 22.47,2.59c39.02,63.58 20.88,126.43 -214.13,106.63c-63.07,-0.72 -103.25,-4.68 -157.1,-36.5l0,0z" fill="#0A6963" fill-rule="evenodd"/>
     <path clip-path="url(#svg_2)" clip-rule="evenodd" d="m119.6,472.36c-41.54,-26.49 -47.38,-89.56 -62.57,-89.2c0,0 0.07,-6.27 1.01,-8.72c18.29,6.99 41.54,47.31 59.9,61.92c51.34,41.33 112.97,50.48 131.76,51.27c-2.73,-0.15 301.11,1.94 220.76,-91.08c6.91,1.22 22.46,2.45 22.46,2.45c40.32,65.37 22.75,129.74 -215.57,110.01c-63.72,-0.57 -102.89,-3.96 -157.75,-36.65l0,0z" fill="#006860" fill-rule="evenodd"/>
     <path clip-path="url(#svg_2)" clip-rule="evenodd" d="m56.96,384.31c0,0 0.14,-6.27 0.79,-8.79c18,7.2 41.26,48.6 59.62,63.44c52.34,42.4 114.33,51.62 133.2,52.41c-3.39,-0.14 304.34,1.08 221.4,-94.68c7.13,1.15 22.68,2.38 22.68,2.38c41.54,67.25 24.69,133.13 -216.94,113.47c-64.37,-0.36 -102.38,-3.17 -158.4,-36.79c-41.97,-27.15 -47.16,-91.8 -62.35,-91.44l0,0z" fill="#00655D" fill-rule="evenodd"/>
     <path clip-path="url(#svg_2)" clip-rule="evenodd" d="m157.76,321.38c-1.94,-0.79 -3.96,-3.17 -6.77,0.79s-1.58,4.39 -5.61,5.98c-3.96,1.58 -7.56,5.18 -3.96,4.82c3.6,-0.43 10,-3.6 5.18,1.95c-4.82,5.61 -6.77,11.59 -4.39,10c2.37,-1.58 5.18,-7.99 3.17,2.02c-1.95,10.01 -2.38,19.22 0.79,11.23c3.24,-8.06 8.42,-16.05 8.06,-8.06c-0.43,8.06 -4.82,10.8 -1.22,18c3.6,7.2 3.17,12.02 3.6,6.05c0.36,-6.05 7.49,-44.79 5.11,-20.45c2.02,7.63 8.42,22.46 12.38,26.06c-3.09,-2.81 -5.04,-11.95 -9.57,-34.05c0.79,-6.41 3.17,-10.8 4.39,-8.36c1.22,2.38 1.22,-0.43 0,7.56c-1.22,8 0.79,20.02 4.39,26.43c3.6,6.41 5.62,6.77 9.22,12.38c3.6,5.62 15.62,15.63 4.39,1.59c-11.16,-13.97 -15.62,-16.78 -15.98,-26.36c-0.44,-9.64 1.58,-2.44 2.8,3.17c1.16,5.62 5.62,10.44 8,13.18c2.37,2.81 1.58,1.22 -2.02,-5.98c-3.6,-7.2 -3.96,-10.37 -2.38,-12.02c1.59,-1.59 0.8,-0.79 2.81,5.61c1.95,6.41 8.79,19.59 11.16,20.02c2.45,0.43 -3.17,-6.77 -4.75,-11.23c-1.66,-4.39 -2.45,-6.77 2.38,2.01c4.82,8.79 17.56,27.22 10.8,15.63c-6.84,-11.59 -10.01,-18.43 -12.03,-23.62c-2.01,-5.18 -5.61,-9.21 -6.77,-13.97c-1.22,-4.82 -2.8,-8.85 -3.6,-5.25c-0.79,3.6 -4.03,10.01 -3.24,2.81c0.8,-7.2 2.02,-13.61 -1.15,-13.97c-3.24,-0.43 -2.45,-12.03 -9.65,3.6c-3.16,2.37 -5.18,2.37 -1.94,-5.19c3.17,-7.63 5.18,-12.02 -1.22,-7.99c-6.34,3.96 -11.96,3.17 -7.13,0.79c4.75,-2.44 10.29,-2.44 14.69,-2.44c4.46,0 12.45,-0.36 11.66,-2.74c-0.86,-2.38 -0.43,-4.75 -2.45,-3.6c-2.01,1.22 -1.58,3.96 -4.75,0.86c-3.24,-3.24 -7.2,-6.4 -7.2,-3.24c0,3.24 -2.45,7.92 -4.82,5.98c-2.38,-1.94 -2.38,0 -2.38,0l0,0z" fill="#609F8E" fill-rule="evenodd" stroke="#8DC6BA" stroke-miterlimit="2.61" stroke-width="0.36"/>
     <path clip-path="url(#svg_2)" clip-rule="evenodd" d="m174.97,294.6c3.96,0 6.77,0.79 9.57,3.6c2.81,2.73 10.37,5.54 2.38,4.75c-7.99,-0.79 -21.1,-0.36 -15.55,2.01c5.54,2.38 17.13,5.19 9.57,5.19s-8.35,-3.6 -15.91,-2.38c-7.63,1.23 -18,0.79 -24.05,6.77c-5.97,6.05 -19.94,31.61 -18.79,24.41c1.23,-7.2 2.45,-14.4 -1.15,-3.6s-7.2,23.97 -7.2,10.44c0,-13.61 5.54,-23.26 -1.66,-14.04c-5.61,7.2 -5.54,13.17 -6.4,8.78c-0.8,-4.39 1.51,-9.36 5.61,-13.53c13.25,-13.61 27.51,-21.89 8.43,-12.82c-8.43,3.96 -22.4,12.38 -13.61,5.62c8.78,-6.84 15.98,-10.01 26.42,-14.04c11.02,-4.25 8.79,-6.77 -0.43,-2.38c-9.22,4.39 -3.6,-2.45 16.42,-8.42c4.39,-0.72 14.4,-2.74 1.22,-2.74c-5.26,0.43 -7.2,1.22 -10.01,1.58c-2.81,0.44 -14.83,-1.94 0.79,-3.96c15.56,-2.01 28.37,2.38 34.35,4.76l0,0z" fill="#4C9695" fill-rule="evenodd" stroke="#85BDBA" stroke-miterlimit="2.61" stroke-width="0.36"/>
     <path clip-path="url(#svg_2)" clip-rule="evenodd" d="m232.93,405.4c10.8,7.56 20.73,11.96 29.95,13.54c-10.37,-6.77 -15.55,-10.37 -20.02,-12.74c-4.39,-2.38 -6.33,-8.79 -9.93,-0.8l0,0z" fill="#82C0CA" fill-rule="evenodd"/>
     <path clip-path="url(#svg_2)" clip-rule="evenodd" d="m420.27,385.32c-0.72,-1.08 -1.73,-2.16 -2.52,-1.88c-1.22,0.44 -2.23,1.8 -2.81,0.22c-0.64,-1.58 -1.44,-3.82 -2.59,-4.39c-1.22,-0.58 -1.22,-0.22 -0.43,-2.02s1.44,-3.02 -0.22,-3.38c-1.58,-0.43 -2.59,-1.01 -2.59,-1.8c0,-0.79 0.43,-1.01 -1.37,-0.79c-1.8,0.21 -3.38,0.57 -4.6,-0.22c-1.23,-0.79 -1.01,-0.79 -2.02,0.22c-1.01,1 -1.8,0.79 -3.02,-0.65c-1.16,-1.37 -0.8,-1.8 -2.16,-1.8c-1.44,0 -1.8,-0.58 -2.38,-2.16c-0.65,-1.59 0.14,-2.38 -1.44,-3.39c-1.58,-1 -2.02,-4.03 -2.02,-4.03s-0.21,-0.14 -0.64,-0.29l-208.01,0l238.82,26.36z" fill="#BCDEEF" fill-rule="evenodd" stroke="#000000" stroke-miterlimit="2.61" stroke-width="0.36"/>
     <path clip-path="url(#svg_2)" clip-rule="evenodd" d="m181.52,358.96l-0.22,0c0,0.44 0.22,1.01 0.8,1.88c2.44,2.73 -0.36,4.53 3.02,4.39c3.38,-0.22 4.97,2.95 6.41,4.75c1.37,1.8 1.58,2.81 3.6,3.24c2.01,0.36 0.36,1.37 1.37,3.38c1,2.02 1.58,3.03 3.02,3.6c1.37,0.58 2.16,1.01 3.02,3.17c0.8,2.23 -1.65,3.6 1.37,4.47c3.03,0.79 2.59,1.94 3.39,4.39c0.79,2.37 1.44,3.38 2.8,3.38c1.44,0 2.81,5.19 4.04,7.2c1.15,2.02 2.95,3.17 3.96,2.59c1,-0.57 1.58,-1.58 4.24,1.37c2.6,3.03 5.4,5.4 5.4,3.03c0,-2.38 0.8,-5.4 2.6,-4.61c1.8,0.79 4.6,0.21 4.17,-1.15c-0.43,-1.44 2.38,-4.25 3.6,0c1.23,4.17 6.77,7.99 6.77,6.33c0,-1.58 2.45,-2.37 4.61,-0.93c2.23,1.36 4.03,1.94 5.61,0c1.59,-2.02 1.44,-3.03 3.39,-1.23c2.01,1.8 3.24,2.02 4.82,1.23c1.59,-0.87 3.6,-1.66 5.4,-0.44c1.8,1.23 16.78,-1.36 17.57,-0.21c0.79,1.22 1.22,1.22 2.81,2.23c1.58,1.01 8.42,5.62 7.99,3.82c-0.36,-1.8 3.82,-2.24 6.62,-1.23c2.81,1.01 9,3.96 8.43,2.02c-0.65,-2.02 1.8,-1.44 4.61,0.79c2.73,2.16 7.2,2.38 6.55,1.37c-0.58,-1.01 14.83,-1.01 17.78,0.79c3.03,1.8 16.42,6.05 12.46,2.81c-4.03,-3.17 -3.24,-2.81 -6.19,-5.19c-3.03,-2.37 -6.41,-5.97 -4.04,-5.61c2.38,0.43 5.19,3.81 7.2,3.38c2.02,-0.36 5.4,-1.15 7.64,-0.57c2.16,0.57 5.54,1.8 5.18,0.21c-0.43,-1.58 1.58,0.36 3.6,0.58c2.02,0.21 -0.43,-2.16 -2.23,-2.95c-1.8,-0.87 -3.17,-3.03 -1.01,-2.02c2.23,1.01 7.2,3.38 4.61,1.15c-2.59,-2.16 -3.6,-2.73 -5.4,-4.97c-1.8,-2.23 -1.15,-1.8 -2.59,-1.8c-1.37,0 -4.18,-1 -3.39,-2.01c0.79,-1.01 0,-1.59 -1.44,-2.16c-1.37,-0.65 -2.16,-3.46 -0.93,-3.46c1.15,0 1.58,-0.57 -1.01,-0.79c-2.59,-0.14 -7.63,0.22 -6.63,-1.15c1.01,-1.44 -1.36,-3.46 -2.01,-3.6c-0.58,-0.22 -2.38,-2.02 -1.15,-2.81c1.15,-0.79 0.57,-1.8 -2.02,-1.8c-2.59,0 -7.99,-1.22 -6.62,-2.02c1.44,-0.79 1,-5.83 -1.01,-6.4c-2.02,-0.58 -2.81,-12.39 1.01,-10.59c3.81,1.8 5.97,3.17 5.04,1.23c-1.01,-2.02 0.36,-0.65 2.16,0.79c1.8,1.37 3.6,3.38 3.24,1.8c-0.44,-1.66 12.16,13.39 14.97,16.34c2.81,3.03 11.16,11.81 9.58,8.86c-1.59,-3.03 2.45,1.01 5.4,2.81c4.03,2.73 6.05,3.96 5.18,2.59c-0.79,-1.44 1.66,0 3.82,1.37c2.23,1.44 13.61,5.18 11.23,3.24c-2.45,-2.02 9.58,3.16 7.2,1.8c-2.45,-1.44 3.82,0 2.59,-1.66c-1.22,-1.58 0,-1.94 2.81,-0.36c2.81,1.58 13.97,6.55 8.21,2.02c-5.83,-4.61 -14.83,-11.24 -9.43,-8.86c5.4,2.45 7.99,3.24 5.4,0.79c-2.6,-2.37 -2.02,-2.37 1.58,-0.14c3.6,2.16 8.86,5.97 4.82,1.94c-2.59,-2.16 -6.76,-4.53 3.82,-0.36c10.58,4.18 4.18,0 1.01,-1.44c-3.24,-1.37 -0.43,-1.37 5.54,1.66c6.05,2.95 9.65,3.74 4.25,0.79c-5.4,-3.02 -9.43,-6.05 -4.39,-4.25c4.97,1.8 22.61,5.83 13.61,2.67c-9,-3.24 -15.05,-4.61 -16.42,-6.27c-1.44,-1.58 1.37,-1.8 -0.43,-3.17c-1.8,-1.36 -2.38,-1.58 -3.6,-2.23c-1.15,-0.57 -0.79,-0.79 -1.15,-1.94c-0.15,-0.43 -0.44,-1.01 -0.8,-1.51l-0.84,-1.07" fill="#BCDEEF" fill-rule="evenodd" stroke="#015559" stroke-miterlimit="2.61" stroke-width="0.36"/>
     <path clip-path="url(#svg_2)" clip-rule="evenodd" d="m184.11,296.4c2.09,0 3.75,0.21 5.83,0.57c1.8,1.15 4.18,1.95 6.41,1.95c2.16,0 4.39,0 6.19,1.22s2.6,2.23 3.96,-0.58c1.44,-2.8 3.82,-0.79 4.4,0.8c1.44,0 1.44,2.59 2.44,3.38c1.01,0.79 2.81,0.43 4.76,-0.36c2.01,-0.86 2.44,2.59 3.81,3.38c1.44,0.8 1.44,0 4.25,0c2.74,0 2.95,3.6 4.97,3.82c2.01,0.14 2.01,2.74 2.81,4.54c0.79,1.8 0,2.23 1.8,1.8c1.8,-0.36 2.01,0.21 3.81,1.8c1.8,1.65 3.17,3.81 4.39,2.8c1.16,-1 4.18,1.23 5.98,2.02s3.38,4.03 2.81,0.79c-0.58,-3.17 3.6,-2.37 4.61,-2.16c1,0.15 2.37,1.01 4.39,-0.21c2.01,-1.23 1.22,-0.44 4.17,0.79c3.03,1.22 68.04,11.37 69.63,11.23c1.58,-0.22 4.17,0.14 6.19,0.79c2.02,0.58 0.79,1.15 1.8,0.58c1.01,-0.58 4.03,0.79 4.61,1.8c0.57,1.01 2.81,2.01 5.18,1.22c2.38,-0.79 3.6,0.79 4.61,1.15c1.01,0.44 -2.02,6.2 3.02,3.82c4.97,-2.38 3.6,1.22 3.39,3.02c-0.22,1.8 0.21,1.16 1.22,1.16c0.94,0 2.95,0.21 3.96,1.65c1.01,1.37 -1.22,2.38 0.43,1.59c1.59,-0.8 3.6,4.6 4.61,6.19c0.94,1.58 1.37,0.43 1.95,-1.23c0.64,-1.58 1.44,-0.14 1.8,0.8c0.43,1 2.59,1.22 3.24,0.21c0.57,-1.01 2.95,0.43 4.39,0.79c0.93,0.29 2.59,0.94 3.53,1.3l-208.08,0c0.14,-1.3 1.72,-1.87 1.44,-2.88c-0.44,-1.37 1.72,-3.02 1,-3.38c-0.79,-0.44 0,-1.8 -1,-4.4c-1.01,-2.59 -0.65,-2.01 -2.24,-3.02c-1.58,-1.01 0.44,-2.59 -1.15,-3.02c-1.65,-0.36 -1.22,-2.38 -0.43,-3.75c0.79,-1.44 -2.38,-1.8 -4.03,-2.45c-1.59,-0.57 -0.94,-3.16 2.45,-5.18c3.38,-2.02 2.01,-2.38 2.59,-3.17c0.57,-0.79 -7.2,1.59 -9.43,1.37c-2.16,-0.22 -7.56,4.03 -9,5.4c-1.37,1.44 -2.38,5.18 -3.75,6.98c-1.44,1.8 -2.66,3.46 -2.66,4.83c0,1.37 -2.59,9.43 -3.6,11.81c-0.07,0.21 -0.07,0.07 -0.15,0.14l-1.08,0.72c0.44,-1.87 1.16,-4.39 1.44,-5.69c0.65,-2.37 2.02,-5.61 1.44,-5.97c-0.64,-0.44 0.8,-4.83 1.95,-6.63c1.22,-1.8 6.26,-8.21 5.25,-8.57c-1,-0.43 5.19,-5.04 8.36,-6.04c3.24,-0.94 12.24,-3.75 12.81,-5.76c0.58,-2.02 3.53,-3.03 6.55,-3.6c2.96,-0.58 2.96,-2.81 1.16,-3.03c-1.8,-0.21 -3.75,-1.15 -2.74,-1.58c0.94,-0.43 1.8,-0.79 0.58,-1.37c-1.23,-0.65 -1.01,-0.86 0.36,-1.22c1.44,-0.44 -5.12,-2.6 -8.07,-2.6c-3.02,0 -4.25,-1.22 -6.41,-2.8c-2.23,-1.59 -4.6,-1.01 -6.4,-0.58c-1.8,0.36 -8.21,1.15 -10.8,0.79c-2.6,-0.43 -2.81,0.79 -1.44,1.59c1.44,0.79 1.22,2.01 -0.8,2.37c-2.01,0.43 -5.61,2.59 -6.19,3.6c-0.57,1.01 -2.37,1.59 -4.39,1.59s-2.81,0.64 -4.61,2.01c-1.8,1.44 -2.81,1.23 -5.18,1.44c-2.38,0.15 -2.23,1.15 -3.24,2.95c-0.94,1.8 -1.37,2.45 -3.6,3.24c-2.16,0.8 -1.8,2.02 -3.17,4.61c-1.37,2.59 -1.8,3.96 -2.81,3.75c-1.01,-0.15 2.59,-7.56 4.03,-9.36c1.37,-1.8 2.6,-3.24 3.6,-5.62c1.01,-2.38 1.59,-3.02 5.19,-3.96c3.6,-1.01 8.42,-5.04 11.16,-5.62c2.81,-0.64 4.82,-1.44 3.45,-1.44c-1.44,0 -1,-1.15 0.8,-1.58c1.8,-0.36 7.99,-4.82 10.15,-5.18c2.23,-0.44 3.02,0.36 6.26,-0.44c3.17,-0.79 1.95,-0.79 4.54,-0.14c2.66,0.58 4.82,0.36 7.2,0.79c2.45,0.36 3.6,1.37 4.46,0.79c0.79,-0.64 2.59,1.59 5.11,1.8c2.6,0.22 2.16,1.8 4.18,1.8s1.01,-0.79 0,-1c-1.01,-0.22 -1.22,-1.01 -3.02,-2.81c-1.8,-1.8 -1.59,-0.58 -4.9,-1.59c-3.38,-1 -2.02,-1.36 0.58,-1.36c0.36,0 0.64,0 0.93,0l0,0z" fill="#BCDEEF" fill-rule="evenodd" stroke="#000000" stroke-miterlimit="2.61" stroke-width="0.36"/>
     <path clip-path="url(#svg_2)" d="m181.66,358.89c0,0 204.84,0 205.64,0c0.21,0.07 1.8,0.72 1.87,0.72" fill="none" stroke="#BCDEEF" stroke-miterlimit="2.61" stroke-width="1.15"/>
     <path clip-path="url(#svg_2)" clip-rule="evenodd" d="m319.69,365.01c-1.59,1.95 1.15,5.19 2.73,5.19c1.66,0 0.87,1.15 4.83,2.8c4.03,1.59 5.61,3.17 7.2,2.38c1.58,-0.79 3.24,0 5.18,1.22c2.02,1.16 5.26,1.95 6.05,0.36c0.79,-1.58 0.79,-5.18 2.38,-4.75c1.58,0.36 3.6,-2.45 0.79,-3.24c-2.81,-0.79 -3.6,0 -6.41,-0.79c-2.81,-0.79 -0.79,0.43 -3.17,-2.02c-2.45,-2.3 -2.45,-4.32 -5.18,-1.51c-2.81,2.74 -3.24,3.53 -5.62,0.36c-2.45,-3.17 -3.24,-3.53 -4.82,-2.37c-1.59,1.22 -3.96,2.37 -3.96,2.37l0,0z" fill="#4A9B98" fill-rule="evenodd"/>
     <path clip-path="url(#svg_2)" clip-rule="evenodd" d="m374.7,483.67c6.98,1.87 29.52,5.04 47.37,5.04c3.96,0.79 8.21,1.44 6.19,1.65c-2.01,0.15 -2.8,0.36 1.01,0.94c3.82,0.65 37.01,4.61 18.58,4.46c-1.8,0.36 -7.78,0.8 1.44,1.95c9.14,1.22 23.18,3.02 20.59,3.6c-2.59,0.65 -4.61,0.43 1.01,1.44c5.54,1.01 28.94,5.97 6.55,4.39c-10.15,0 -24.77,0.79 -19.01,-0.79c5.83,-1.59 3.03,-0.65 -0.36,-0.79c-3.38,-0.22 -8.78,0 -6.84,-1.23c2.02,-1.22 1.01,-1.58 -5.76,-1.22c-6.84,0.43 -39.24,0.79 -23.83,-1.15c5.04,-0.8 14.04,-0.44 -4.61,-2.24c-5.54,-0.36 -13.53,-3.16 -5.76,-3.02c7.78,0.22 4.61,-0.14 -2.01,-1.15c-12.96,-1.8 -29.81,-4.25 -14.4,-3.6c15.4,0.57 8.64,-0.79 -0.22,-2.02c-8.78,-1.22 -11.95,-3.89 -19.94,-6.26l0,0z" fill="#004F2A" fill-rule="evenodd"/>
     <path clip-path="url(#svg_2)" clip-rule="evenodd" d="m407.96,500.37c-7.78,-0.36 -13.25,0.79 -5.69,1.37c7.56,0.58 15.63,-1.01 5.69,-1.37l0,0z" fill="#004F2A" fill-rule="evenodd"/>
     <path clip-path="url(#svg_2)" clip-rule="evenodd" d="m219.75,424.12c-4.39,-1.58 -5.97,-2.37 -3.53,-3.6c2.38,-1.15 1.66,-1.36 4.83,-1.72c3.17,-0.44 2.09,-0.8 6.41,-0.51c4.46,0.36 3.88,-0.14 9.86,1.44c5.98,1.66 200.45,52.27 212.33,55.73c19.58,5.76 32.9,11.3 27.21,14.9c-5.25,3.1 -14.68,2.81 -29.95,3.1c-20.59,-0.22 -51.91,-3.74 -98.78,-16.2c-60.84,-21.17 -102.39,-36.36 -112.03,-40.39c-5.62,-4.39 -10.37,-7.2 -12.82,-8.35c-2.38,-1.23 0.43,-2.45 -3.53,-4.4l0,0z" fill="#D6E040" fill-rule="evenodd" stroke="#000000" stroke-miterlimit="2.61" stroke-width="0.36"/>
     <path clip-path="url(#svg_2)" clip-rule="evenodd" d="m220.69,424.48c-4.18,-1.51 -6.34,-2.08 -4.25,-3.6c1.3,-1 2.74,-1.29 5.76,-1.72c3.02,-0.36 2.16,-0.65 6.48,-0.36c2.81,0.21 4.03,0.21 10.3,1.87c5.76,1.58 200.73,52.13 212.11,55.73c8.78,2.8 31.89,10.08 24.55,13.82c-3.24,1.3 -10.08,2.45 -25.99,2.16c-21.39,0.22 -57.24,-4.32 -103.97,-16.63c-58.32,-20.38 -98.64,-34.78 -107.86,-38.59c-5.97,-3.82 -10.08,-7.06 -12.31,-8.07c-5.04,-2.3 -1.01,-2.73 -4.82,-4.61l0,0z" fill="#EDE937" fill-rule="evenodd"/>
     <path clip-path="url(#svg_2)" clip-rule="evenodd" d="m235.16,435.72c1.15,-0.58 4.97,-1.37 8.14,-1.59c3.24,-0.21 7.84,-1.15 9,-1.58c1.22,-0.43 2.23,-1.37 3.81,-2.23c1.59,-0.8 13.39,-5.55 25.85,2.23c1.8,1.37 2.16,2.81 -0.86,3.53c-2.96,0.79 -5.76,1.8 -7.78,2.37c-2.02,0.65 -3.82,1.01 -6.41,2.23c-2.59,1.23 -4.17,1.37 -5.61,1.8c-1.37,0.44 -3.17,1.37 -3.75,2.02c-4.61,-1.58 -18.43,-6.84 -20.01,-7.42c-1.59,-0.57 -1.23,-0.57 -2.38,-1.36l0,0z" fill="#C1CB3B" fill-rule="evenodd"/>
     <path clip-path="url(#svg_2)" clip-rule="evenodd" d="m311.48,455.16c3.53,-0.94 7.99,-2.16 9.94,-3.6c2.01,-1.37 2.59,-1.8 2.59,-3.17c0,-1.37 0.21,-3.6 7.63,-2.81c7.42,0.79 26.78,16.56 17.42,16.7c-9.43,0.22 -15.62,0.44 -19,0.65c-3.39,0.22 -5.04,0.22 -5.4,1.37c-0.44,1.22 1.15,1.22 -3.03,1.58c-4.17,0.44 -3.17,0.65 -5.18,0c-2.02,-0.57 -21.96,-7.99 -21.96,-7.99c-0.58,-0.93 -1.15,-1.94 2.45,-1.8c3.6,0.22 14.54,-0.93 14.54,-0.93l0,0z" fill="#C1CB3B" fill-rule="evenodd"/>
     <path clip-path="url(#svg_2)" clip-rule="evenodd" d="m230.91,419.44c-2.23,-0.21 -8.71,-0.93 -13.25,1.16c0,0 -2.73,1.72 -0.36,2.37c2.38,0.65 19.95,6.12 21.82,6.84c0,0 -7.78,0.79 -9.07,1.15c-1.37,0.36 38.95,6.99 43.05,8.14c0,0 -9.72,1.01 -12.24,1.51c0,0 32.4,6.63 37.66,7.63c5.26,1.01 -13.03,0 -14.04,0.72c0,0 42.55,5.98 45.29,6.99l-14.26,1.8l43.27,7.7l-12.02,2.02l40.75,5.25l-13.25,1.73l41.98,4.75l-12.46,1.3l38.45,4.25l-6.69,1.22l37.94,3.53l-20.74,-5.04l5.48,-0.72l-27.44,-4.03l5.98,-1.01l-36.29,-5.76l7.06,-1.22l-39.53,-6.27l9.22,-1.22l-36.22,-8.28l9,-1.23l-31.46,-5.25l9.72,-1.23l-40.54,-8.28l6.26,-0.5l-39.45,-9.22l6.98,-0.79l-30.6,-10.01l0,0z" fill-rule="evenodd" stroke="#BD1A8D" stroke-miterlimit="2.61" stroke-width="0.36"/>
     <path clip-path="url(#svg_2)" clip-rule="evenodd" d="m333.66,401.01c1.36,-1.58 2.88,-1.08 3.67,-0.43c0.79,0.5 3.17,4.68 3.96,3.53c0.86,-1.23 0.86,-2.02 2.01,-1.01c1.23,1.01 2.24,0 3.39,-0.43c1.22,-0.36 0.36,-0.72 1.73,-0.51c1.44,0.22 3.6,2.38 3.6,2.38s0,-2.59 3.6,0.43c0.5,0.43 3.88,-1.8 2.23,1.37c-1.59,3.02 0.93,2.66 1.94,2.66c1.01,0 0.43,1.88 2.02,1.8c3.24,-0.21 1.44,2.96 -2.59,1.59c-1.8,-0.65 -2.02,-1.23 -3.03,-1.8c-1.01,-0.65 -1.58,-3.39 -1.58,-1.23c0,0.72 -1.59,0.8 -2.38,-0.21c-0.79,-1.01 0.22,-3.75 -2.37,-1.8c-2.67,2.01 -4.25,1.65 -4.11,0.14c0.36,-6.05 -1.01,0 -1.8,0.36c-0.86,0.43 -2.45,-1.8 -2.45,-1.8s-1.15,3.6 -2.8,-2.81c-0.29,-1.15 -2.81,1.8 -3.17,-0.57c-0.43,-2.31 -1.73,-0.07 -2.67,0.07c-1,0.22 -3.6,-2.66 -1.36,-2.66c2.16,0 1.36,0.14 2.16,0.93l0,0z" fill="#FFFFFF" fill-rule="evenodd" stroke="#D9EBF4" stroke-miterlimit="2.61" stroke-width="0.72"/>
     <path clip-path="url(#svg_2)" clip-rule="evenodd" d="m317.82,413.11c1.08,0.57 0,3.74 -1.23,2.23c-1.29,-1.44 -1.08,-1.58 -2.52,-1.37c-1.51,0.15 -2.16,-0.65 -0.79,-1.65c1.44,-1.08 2.3,-2.38 1.51,-2.74c-0.79,-0.36 -0.43,-1.22 -2.3,-0.36c-1.87,0.86 -2.81,1.37 -2.81,0.79c0,-0.65 -0.72,-0.5 -1.37,-0.21c-0.65,0.21 -1.08,-0.72 0.58,-1.66c1.65,-0.94 3.67,-2.38 3.38,-1.44c-0.29,1.01 -0.07,1.37 0.79,0.5c0.87,-0.93 1.95,-2.44 2.67,-1.58c0.65,0.86 -1.08,2.23 0.43,1.73c1.51,-0.51 3.1,-1.66 3.74,-0.94c0.65,0.65 1.01,1.59 0.22,2.02c-0.86,0.36 -0.36,0.43 0.29,0.93c0.57,0.51 1.29,1.59 0.14,1.8c-1.15,0.22 -2.81,-0.14 -2.16,0.36c0.65,0.44 1.51,1.08 -0.57,1.59l0,0z" fill="#FFFFFF" fill-rule="evenodd" stroke="#D9EBF4" stroke-miterlimit="2.61" stroke-width="0.72"/>
     <path clip-path="url(#svg_2)" clip-rule="evenodd" d="m269.43,333.04c-1.15,-2.37 -0.29,-3.67 -0.14,-4.68c0.07,-1 -1.51,1.16 -1.73,2.81c-0.29,2.31 -2.02,2.45 -0.58,4.25c1.37,1.8 3.03,3.38 4.61,3.1c1.59,-0.29 2.02,-0.94 2.09,0.79c0.14,1.73 0,1.73 -0.86,3.17c-0.94,1.51 -2.02,1.44 -2.45,1.51c-0.36,0.14 -0.79,0.21 -0.79,0.21c1.65,0.22 2.59,0.22 3.02,-0.36c0.43,-0.64 0.22,-0.21 0.5,-0.86c0.29,-0.58 0.87,-2.09 1.8,-2.74c0.87,-0.72 0.87,-0.86 0.87,-0.86s0.5,-0.5 1.01,-0.86c0.5,-0.44 1.72,-1.59 2.08,-1.8c0.44,-0.22 0.87,-0.29 1.01,-0.58c0.22,-0.36 2.16,-3.17 1.15,-3.53c-1,-0.43 -0.93,-0.86 -1.8,0.43c-0.93,1.3 -1.8,2.16 -1.65,0.65c0.21,-1.44 0,-2.23 -1.8,-0.57c-1.8,1.72 -1.87,2.59 -3.6,2.3c-1.66,-0.29 -2.67,-2.23 -2.74,-2.38l0,0z" fill="#A01D29" fill-rule="evenodd"/>
     <path clip-path="url(#svg_2)" clip-rule="evenodd" d="m280.88,413.04c0,1.36 0.14,3.88 0.14,3.88c0,0.58 -1.36,1.3 -1.36,1.3s0.28,-0.43 0,-0.94c-0.22,-0.57 -0.87,-0.36 -1.01,-0.86c-0.07,-0.58 0.07,-0.65 0,-1.44c0,-0.86 -0.87,-2.3 -1.23,-2.81c-0.36,-0.5 -0.72,-1.94 0.08,-0.86c0.79,1.08 2.01,2.73 2.44,2.59c0.51,-0.14 0.72,-0.14 0.94,-0.86l0,0z" fill="#BC9C84" fill-rule="evenodd"/>
     <path clip-path="url(#svg_2)" clip-rule="evenodd" d="m264.97,354.93c-0.65,0.58 -0.87,0.79 -0.87,1.59c0,0.72 0,0.93 0,0.93c-0.57,-1.01 -0.72,-0.93 -1.58,-1.01c-0.79,-0.07 -0.72,-0.36 -1.08,-0.64c-0.36,-0.29 -1.01,-0.22 -1.66,-0.51c-0.64,-0.29 -1.51,-1.15 -0.72,-2.16c0.72,-0.93 1.08,-1.22 1.66,-1.94c0.65,-0.65 0.58,-1.15 0.79,-1.66c0.22,-0.43 0.58,-0.29 0.43,0.94c-0.07,1.22 0,4.17 0.15,4.53c0.14,0.44 0.29,0.51 0.57,0.29c0.22,-0.21 0.08,-0.14 0.36,0.22c0.36,0.36 0.44,0.36 0.87,0c0.36,-0.36 0.36,-0.58 1.08,-0.58l0,0z" fill="#BC9C84" fill-rule="evenodd"/>
     <path clip-path="url(#svg_2)" clip-rule="evenodd" d="m289.38,411.74c-1.59,1.94 1.15,5.18 2.73,5.18c1.66,0 0.87,1.16 4.83,2.81c4.03,1.59 5.61,3.17 7.2,2.38c1.58,-0.79 3.24,0 5.18,1.22c2.02,1.15 5.26,1.95 6.05,0.36c0.79,-1.58 0.79,-5.18 2.37,-4.75c1.59,0.36 3.6,-2.45 0.8,-3.24c-2.81,-0.79 -3.6,0 -6.41,-0.79c-2.81,-0.79 -0.79,0.43 -3.17,-2.02c-2.45,-2.3 -2.45,-4.32 -5.18,-1.51c-2.81,2.74 -3.24,3.53 -5.62,0.36c-2.45,-3.17 -3.24,-3.6 -4.82,-2.38c-1.59,1.23 -3.96,2.38 -3.96,2.38l0,0z" fill="#4A9B98" fill-rule="evenodd"/>
     <path clip-path="url(#svg_2)" clip-rule="evenodd" d="m204.56,397.84c7.99,0.08 3.53,6.12 3.53,2.74c0,2.02 2.81,0 5.25,0.86c2.38,0.8 2.38,-0.86 3.6,2.38c1.16,3.17 -1.22,5.18 4.76,4.39c6.04,-0.79 6.4,-3.6 7.99,-0.79c1.65,2.81 5.18,1.87 2.45,5.98c-4.04,6.04 -5.48,-2.52 -7.64,-1.16c-5.97,3.6 -1.65,-1.72 -5.97,-2.01c-12.03,-0.79 -9.94,-7.35 -13.61,-7.2c-9.14,0.36 -9.5,-2.67 -8.35,-7.92c1.01,-4.75 -6.12,-9.22 4.03,-7.99c8.21,0.93 9.94,1.58 3.6,3.6c-2.23,0.64 -4.03,4.75 0,3.16c3.89,-1.58 4.75,-1.58 3.89,0c-0.79,1.59 1.37,-0.79 1.65,1.59c0.22,1.94 -5.18,2.37 -5.18,2.37l0,0z" fill="#82C0CA" fill-rule="evenodd"/>
     <path clip-path="url(#svg_2)" clip-rule="evenodd" d="m405.66,413.76c-15.2,-4.76 -36.36,-13.18 -38.74,-15.2c-2.45,-1.94 -3.6,-1.94 -3.6,-1.94c22.39,13.97 21.96,13.97 42.34,17.14l0,0z" fill="#82C0CA" fill-rule="evenodd"/>
     <path clip-path="url(#svg_2)" clip-rule="evenodd" d="m347.26,412.96c11.96,4.4 31.97,9.94 36.36,10.8c-22.03,-3.24 -24.76,-2.8 -36.36,-10.8l0,0z" fill="#82C0CA" fill-rule="evenodd"/>
     <path clip-path="url(#svg_2)" clip-rule="evenodd" d="m307.66,421.32c-3.52,-7.42 23.55,11.95 23.55,11.95c-14.4,-3.96 -22.54,-9.79 -23.55,-11.95l0,0z" fill="#82C0CA" fill-rule="evenodd"/>
     <path clip-path="url(#svg_2)" clip-rule="evenodd" d="m178.57,383.8c15.19,17.14 27.57,27.58 33.55,34.78c-25.56,-20.45 -26.35,-23.62 -33.55,-34.78l0,0z" fill="#BEDAD7" fill-rule="evenodd"/>
     <path clip-path="url(#svg_2)" clip-rule="evenodd" d="m164.17,372.21c3.6,8.35 5.54,12.39 9.93,19.15c-10.29,-10.8 -9.57,-11.59 -9.93,-19.15l0,0z" fill="#3CA3B8" fill-rule="evenodd"/>
     <path clip-path="url(#svg_2)" clip-rule="evenodd" d="m182.53,397.41c22.39,19.59 29.95,22.75 36.36,26.79c-18.36,-6.05 -23.62,-10.01 -36.36,-26.79l0,0z" fill="#BDDBDC" fill-rule="evenodd"/>
     <path clip-path="url(#svg_2)" clip-rule="evenodd" d="m98.07,306.33c6.77,-5.97 15.99,-10.8 24.34,-10.8c-12.75,5.62 -20.38,8.86 -24.34,10.8l0,0z" fill="#82C0CA" fill-rule="evenodd"/>
     <path clip-path="url(#svg_2)" clip-rule="evenodd" d="m134.94,349.39c-0.8,6.77 -3.6,7.99 1.15,19.58c-0.79,-10.44 -1.51,-14.4 -1.15,-19.58l0,0z" fill="#63B0B9" fill-rule="evenodd"/>
     <path clip-path="url(#svg_2)" clip-rule="evenodd" d="m127.38,345.43c-2.38,6.77 -6.34,5.54 0,25.2c0,-17.64 -2.38,-20.81 0,-25.2l0,0z" fill="#63B0B9" fill-rule="evenodd"/>
     <path clip-path="url(#svg_2)" clip-rule="evenodd" d="m134.58,377.04c4.75,21.16 8.78,28.36 20.37,42.76c-11.59,-23.18 -17.21,-31.6 -20.37,-42.76l0,0z" fill="#82C0CA" fill-rule="evenodd"/>
     <path clip-path="url(#svg_2)" clip-rule="evenodd" d="m144.58,374.23c1.59,15.19 -1.58,16.77 15.56,37.94c-9.58,-18.79 -13.18,-25.2 -15.56,-37.94l0,0z" fill="#82C0CA" fill-rule="evenodd"/>
     <path clip-path="url(#svg_2)" clip-rule="evenodd" d="m163.74,416.92c2.37,5.98 3.6,8.79 10.36,15.99c6.77,7.2 36,23.18 36,23.18c-26.42,-18.79 -39.16,-29.23 -46.36,-39.17l0,0z" fill="#008D6B" fill-rule="evenodd"/>
     <path clip-path="url(#svg_2)" clip-rule="evenodd" d="m176.55,412.96c2.38,5.98 3.6,8.79 10.37,15.99c6.77,7.2 29.23,20.01 29.23,20.01c-20.01,-14.83 -32.4,-26.06 -39.6,-36l0,0z" fill="#008D6B" fill-rule="evenodd"/>
     <path clip-path="url(#svg_2)" clip-rule="evenodd" d="m245.96,458.76c0,0 7.27,8.49 13.75,11.73c7.63,3.89 23.19,7.85 23.19,7.85c-22.76,-10.01 -19.59,-4.03 -36.94,-19.58l0,0z" fill="#008D6B" fill-rule="evenodd"/>
     <path clip-path="url(#svg_2)" clip-rule="evenodd" d="m417.32,405.04c9.94,8.57 20.02,7.78 27.94,8.79c15.55,1.87 28.8,14.4 28.8,14.4c-17.79,-22.39 -50.26,-14.19 -56.74,-23.19l0,0z" fill="#006A4F" fill-rule="evenodd"/>
     <path clip-path="url(#svg_2)" clip-rule="evenodd" d="m340.06,486.91c8.79,3.17 12.75,4.39 21.17,6.77c6.55,1.87 -13.17,0.36 -21.17,-6.77l0,0z" fill="#008E55" fill-rule="evenodd"/>
     <path clip-path="url(#svg_2)" clip-rule="evenodd" d="m459.08,495.76c4.97,0.36 18.14,0.8 11.16,1.16c-6.98,0.43 -21.53,-1.01 -11.16,-1.16l0,0z" fill="#004F2A" fill-rule="evenodd"/>
     <path clip-path="url(#svg_2)" clip-rule="evenodd" d="m383.19,488.35c-7.77,-0.36 -13.25,0.79 -5.69,1.37c7.56,0.57 15.63,-1.01 5.69,-1.37l0,0z" fill="#008E55" fill-rule="evenodd"/>
     <path clip-path="url(#svg_2)" clip-rule="evenodd" d="m371.89,429.16c5.83,2.02 3.96,2.96 12.96,4.76c8.42,1.72 25.2,8.64 25.2,8.64c-21.67,-13.25 -27,-8.28 -38.16,-13.4l0,0z" fill="#008D6B" fill-rule="evenodd"/>
     <path clip-path="url(#svg_2)" clip-rule="evenodd" d="m376.71,412.32c7.78,3.96 11.95,3.74 14.55,4.75c5.11,2.01 23.61,8.21 23.61,8.21c-24.26,-12.89 -31.17,-10.44 -38.16,-12.96l0,0z" fill="#008D6B" fill-rule="evenodd"/>
     <path clip-path="url(#svg_2)" clip-rule="evenodd" d="m431.5,398.42c4.97,6.77 15.7,6.34 16.2,6.34c7.56,-0.08 17.57,1.8 17.57,1.8c-15.69,-8 -20.3,0.86 -33.77,-8.14l0,0z" fill="#006A4F" fill-rule="evenodd"/>
     <path clip-path="url(#svg_2)" clip-rule="evenodd" d="m216.94,443.92c11.16,2.38 10.37,4.4 16.35,7.56c6.05,3.24 -5.98,2.02 -16.35,-7.56l0,0z" fill="#008E55" fill-rule="evenodd"/>
     <path clip-path="url(#svg_2)" clip-rule="evenodd" d="m418.9,414.55c14.4,3.09 13.04,5.76 16.35,7.56c6.05,3.24 -10.37,-2.38 -16.35,-7.56l0,0z" fill="#008E55" fill-rule="evenodd"/>
     <path clip-path="url(#svg_2)" clip-rule="evenodd" d="m358.35,436.36c-12.67,-4.32 -15.91,-12.31 -10.44,-8.13c5.19,3.89 11.81,6.19 10.44,8.13l0,0z" fill="#008E55" fill-rule="evenodd"/>
     <path clip-path="url(#svg_2)" clip-rule="evenodd" d="m312.42,433.56c-11.02,-2.02 -23.76,-9.22 -16.06,-6.56c6.41,2.16 10.08,3.82 16.06,6.56l0,0z" fill="#008E55" fill-rule="evenodd"/>
     <path clip-path="url(#svg_2)" clip-rule="evenodd" d="m264.82,452.35c-7.77,-1.59 -20.37,-5.62 -12.88,-4.18c11.59,2.23 5.76,0.58 12.88,4.18l0,0z" fill="#008E55" fill-rule="evenodd"/>
     <path clip-path="url(#svg_2)" clip-rule="evenodd" d="m165.75,391.8c2.74,7.56 3.6,9.57 9.94,13.96c5.61,3.82 -15.48,-4.39 -9.94,-13.96l0,0z" fill="#008E55" fill-rule="evenodd"/>
     <path clip-path="url(#svg_2)" clip-rule="evenodd" d="m176.98,399.43c3.6,9.93 17.14,23.97 28.37,30.38c-13.97,-14.83 -27.21,-24.84 -28.37,-30.38l0,0z" fill="#00502A" fill-rule="evenodd"/>
     <path clip-path="url(#svg_2)" clip-rule="evenodd" d="m226.16,458.11c5.98,9.93 25.99,15.98 37.15,22.39c-15.55,-13.25 -30.38,-16.85 -37.15,-22.39l0,0z" fill="#00502A" fill-rule="evenodd"/>
     <path clip-path="url(#svg_2)" clip-rule="evenodd" d="m418.9,401.8c8,5.55 12.39,2.74 23.98,7.56c-13.1,-8.28 -17.14,-2.73 -23.98,-7.56l0,0z" fill="#00502A" fill-rule="evenodd"/>
     <path clip-path="url(#svg_2)" clip-rule="evenodd" d="m234.15,436.15c5.19,2.73 22.75,9 22.75,9c-6.76,-0.43 -9.36,-0.43 -7.56,0.36s2.6,1.58 -2.66,0.21c-5.18,-1.44 -7.34,-1.36 -5.76,-0.57c3.02,1.37 2.02,2.37 -6.62,-1.01c-8.5,-3.46 -16.28,-7.63 -17.5,-8.14c-1.22,-0.64 -2.59,-2.44 -2.59,-2.44c12.17,2.95 10.15,-0.36 4.39,-2.81c-5.83,-2.38 -10.8,-7.56 -6.62,-4.97c4.24,2.59 13.6,7.42 15.62,7.99c2.02,0.58 6.55,2.38 6.55,2.38l0,0z" fill="#00502A" fill-rule="evenodd"/>
     <path clip-path="url(#svg_2)" clip-rule="evenodd" d="m294.78,458.76c10.15,3.38 23.76,7.99 24.19,8.35c-14.4,0.57 -18.79,0.21 -16.85,1.22c2.02,1.01 8.14,4.47 -2.59,1.59c-13.18,-3.6 -16.49,-2.45 -13.11,-0.58c2.6,1.37 3.6,2.3 -4.6,-0.43c-9.87,-3.31 -14.4,-1.59 -17.79,-3.82c-3.38,-2.16 -8.21,-5.4 -8.21,-5.4c4.83,0.65 11.16,3.6 13.61,3.82c2.38,0.21 14.47,1.73 6.19,-0.58c-7.48,-2.16 -17.78,-7.34 -17.78,-7.34c14.18,3.53 18.58,4.1 17.57,2.81c-1.01,-1.44 -4.61,-2.6 2.37,-1.23c7.06,1.44 17,1.59 17,1.59l0,0z" fill="#00502A" fill-rule="evenodd"/>
     <path clip-path="url(#svg_2)" clip-rule="evenodd" d="m311.26,475.32c5.55,0.79 6.34,-0.36 10.8,1.15c4.4,1.58 14.76,4.03 9.94,4.03c-4.75,0 -13.18,-1.22 -7.99,1.15c5.25,2.45 9.21,5.26 -3.96,3.24c-13.18,-2.01 -58.32,-15.55 -11.95,-5.61c7.56,1.58 12.31,2.8 5.11,-0.36c-7.13,-3.24 -16.71,-5.55 -1.95,-3.6l0,0z" fill="#00502A" fill-rule="evenodd"/>
     <path clip-path="url(#svg_2)" clip-rule="evenodd" d="m193.33,438.16c7.56,4.4 6.33,4.76 12.74,7.56c6.41,2.81 9.65,5.98 9.65,5.98c-10.01,-3.96 -15.26,-5.18 -22.39,-13.54l0,0z" fill="#00502A" fill-rule="evenodd"/>
     <path clip-path="url(#svg_2)" clip-rule="evenodd" d="m234.94,414.12c4.97,0.07 10.8,1.8 12.75,1.94c2.95,0.29 9.65,6.05 9.65,6.05c-8.43,-1.66 -12.82,-2.81 -22.4,-7.99l0,0z" fill="#00502A" fill-rule="evenodd"/>
     <path clip-path="url(#svg_2)" clip-rule="evenodd" d="m366.92,482.73c-1.8,-2.37 -1.94,-2.95 -3.17,-3.17c-1.22,-0.21 -0.79,-0.43 -0.79,0.58c0,1.01 0.22,2.02 -1.44,0.65c-1.58,-1.44 -4.18,-3.6 -3.96,-2.59c0.22,0.93 0.58,1.94 -1.01,-0.65c-1.58,-2.59 -2.81,-4.18 -4.17,-3.82c-1.44,0.43 -0.65,0.65 0.57,2.02c1.23,1.44 1.8,1.44 -0.36,1.01c-2.23,-0.36 -2.81,-0.8 -3.6,-0.36c-0.86,0.36 1.37,2.73 -2.23,-0.44c-3.6,-3.16 -6.62,-7.2 -7.78,-5.97c-1.22,1.15 -0.43,1.01 0.15,2.59c0.65,1.58 -0.36,2.02 -1.8,0.36c-1.37,-1.58 -1.8,-1.94 -3.39,-2.16c-1.58,-0.22 -0.79,2.02 -3.16,0c-2.45,-2.02 -2.45,-1.8 -1.01,-2.02c1.37,-0.21 6.88,-6.82 6.23,-7.26c-0.58,-0.43 -5.87,5.46 -5.66,4.1c0.22,-1.44 -0.21,-2.81 -2.16,-1.23c-2.01,1.59 0,4.83 -1.22,4.83c-1.22,0 -1.8,-1.44 -2.38,-2.45c-0.64,-1.01 -1.44,-1.8 -2.59,-1.59c-1.22,0.22 -1.22,1.8 -1.8,1.01c-0.65,-0.79 1.8,-1.37 0.79,-3.38c-1,-2.02 -5.83,-6.99 -4.24,-3.24c1.65,3.81 0.43,3.6 -0.36,4.03c-0.8,0.36 -4.4,0.22 -4.83,-1.58c-0.36,-1.8 -4.61,-5.84 -3.02,-1.01c-0.58,1.01 -1.37,2.01 -2.74,0.21c-1.44,-1.8 -3.45,-3.45 -3.6,-2.23c-0.21,1.23 -1.44,1.23 -2.01,-0.21c-0.65,-1.37 -3.6,-4.4 -4.25,-3.39c-0.58,1.01 2.23,1.8 0.86,1.8c-1.44,0 -2.81,-1.01 -4.61,-1.58c-1.8,-0.65 -4.24,-2.23 -3.6,-0.65c0.58,1.66 -1.44,0.86 -2.23,-0.14c-0.79,-1.01 -2.01,-2.81 -4.61,-2.81c-2.59,0 -1.8,-0.43 -1.15,0.79c0.58,1.22 -0.43,0.79 -2.45,0c-2.01,-0.79 -2.37,-2.23 -3.96,-3.38c-1.65,-1.23 -8.64,-4.4 -3.6,-1.23c4.97,3.17 2.81,2.81 1.95,2.81c-0.79,0 -3.96,-1.58 -2.38,-0.22c1.59,1.44 3.03,2.24 4.61,2.38c1.58,0.22 3.82,0.43 4.61,1.44c0.79,1.01 1.01,1.01 2.59,1.22c1.58,0.15 4.03,-0.21 5.18,0.94c1.23,1.22 2.81,2.23 4.4,2.23c1.65,0 6.04,0.43 4.82,1.59c-1.22,1.22 -3.02,3.6 -0.43,3.6c2.66,0 2.45,-1.01 4.61,-0.8c2.23,0.22 3.24,-0.79 3.02,0.8c-0.22,1.58 0.79,2.01 2.81,1.58c2.01,-0.36 4.39,0.22 4.39,0.22c-3.38,0.79 -4.03,1.8 -1.58,1.58c2.37,-0.14 1,0.22 -0.8,1.22c-1.8,1.01 -1.22,2.81 1.16,1.59c2.44,-1.15 8.2,-3.39 5.25,-0.58c-3.02,2.81 -2.66,5.62 0.58,3.6c3.17,-2.01 6.41,-2.01 7.77,-2.23c1.44,-0.14 5.19,-0.36 3.24,0.65c-2.01,1.01 -5.04,3.38 -1.8,2.81c3.17,-0.65 6.99,-2.45 4.76,-0.22c-2.16,2.16 -1.59,3.96 0.21,3.38c1.8,-0.57 2.81,-0.79 3.24,0c0.36,0.8 1.15,1.01 2.16,0.22c1.01,-0.79 2.59,-0.79 3.6,-1.22c1.01,-0.36 3.6,-2.02 4.18,0c0.65,2.01 0.65,0.79 1.8,0.79c1.22,0 1.01,-0.58 1.8,1.58c0.86,2.23 3.02,2.45 4.46,1.44c1.37,-1.01 2.59,-1.8 3.96,-0.79c1.37,1.01 2.23,1.58 4.03,1.58c1.8,0 2.6,0 3.75,1.37c1.22,1.37 5.54,2.95 4.39,0l0,0z" fill="#E1F4FD" fill-rule="evenodd"/>
     <path clip-path="url(#svg_2)" clip-rule="evenodd" d="m294.34,450.62c1.23,0 2.24,-0.65 2.24,-1.51c0,-0.87 -1.01,-1.59 -2.24,-1.59c-1.22,0 -2.23,0.72 -2.23,1.59c0,0.86 1.01,1.51 2.23,1.51l0,0z" fill="#E1F4FD" fill-rule="evenodd"/>
     <path clip-path="url(#svg_2)" clip-rule="evenodd" d="m322.86,459.19c1.22,0 2.23,-0.65 2.23,-1.51c0,-0.87 -1.01,-1.59 -2.23,-1.59c-1.23,0 -2.24,0.72 -2.24,1.59c0,0.86 1.01,1.51 2.24,1.51l0,0z" fill="#E1F4FD" fill-rule="evenodd"/>
     <path clip-path="url(#svg_2)" clip-rule="evenodd" d="m272.38,455.01c1.23,0 2.24,-0.65 2.24,-1.51c0,-0.86 -1.01,-1.58 -2.24,-1.58c-1.22,0 -2.23,0.72 -2.23,1.58c0,0.86 1.01,1.51 2.23,1.51l0,0z" fill="#E1F4FD" fill-rule="evenodd"/>
     <path clip-path="url(#svg_2)" clip-rule="evenodd" d="m334.52,468.98c0.65,0 1.15,-0.5 1.15,-1.15c0,-0.65 -0.5,-1.23 -1.15,-1.23s-1.15,0.58 -1.15,1.23c0,0.65 0.5,1.15 1.15,1.15l0,0z" fill="#E1F4FD" fill-rule="evenodd"/>
     <path clip-path="url(#svg_2)" clip-rule="evenodd" d="m342.15,469.56c0.65,0 1.15,-0.51 1.15,-1.16c0,-0.64 -0.5,-1.22 -1.15,-1.22c-0.65,0 -1.15,0.58 -1.15,1.22c0,0.65 0.5,1.16 1.15,1.16l0,0z" fill="#E1F4FD" fill-rule="evenodd"/>
     <path clip-path="url(#svg_2)" clip-rule="evenodd" d="m338.12,482.37c0.65,0 1.15,-0.5 1.15,-1.15c0,-0.65 -0.5,-1.22 -1.15,-1.22s-1.15,0.57 -1.15,1.22c0,0.65 0.5,1.15 1.15,1.15l0,0z" fill="#E1F4FD" fill-rule="evenodd"/>
     <path clip-path="url(#svg_2)" clip-rule="evenodd" d="m289.38,462.21c0.64,0 1.15,-0.5 1.15,-1.15s-0.51,-1.22 -1.15,-1.22c-0.65,0 -1.16,0.57 -1.16,1.22s0.51,1.15 1.16,1.15l0,0z" fill="#E1F4FD" fill-rule="evenodd"/>
     <path clip-path="url(#svg_2)" clip-rule="evenodd" d="m299.38,453.21c0.65,0 1.16,-0.5 1.16,-1.15s-0.51,-1.22 -1.16,-1.22c-0.64,0 -1.15,0.57 -1.15,1.22s0.51,1.15 1.15,1.15l0,0z" fill="#E1F4FD" fill-rule="evenodd"/>
     <path clip-path="url(#svg_2)" clip-rule="evenodd" d="m301.4,458.4c0.65,0 1.15,-0.51 1.15,-1.16c0,-0.64 -0.5,-1.22 -1.15,-1.22c-0.65,0 -1.15,0.58 -1.15,1.22c0,0.65 0.5,1.16 1.15,1.16l0,0z" fill="#E1F4FD" fill-rule="evenodd"/>
     <path clip-path="url(#svg_2)" clip-rule="evenodd" d="m294.42,426.43c0.64,0 1.15,-0.51 1.15,-1.15c0,-0.65 -0.51,-1.23 -1.15,-1.23c-0.65,0 -1.16,0.58 -1.16,1.23c0,0.64 0.51,1.15 1.16,1.15l0,0z" fill="#E1F4FD" fill-rule="evenodd"/>
     <path clip-path="url(#svg_2)" clip-rule="evenodd" d="m310.33,428.16c0.65,0 1.15,-0.51 1.15,-1.16c0,-0.64 -0.5,-1.22 -1.15,-1.22c-0.65,0 -1.15,0.58 -1.15,1.22c0,0.65 0.5,1.16 1.15,1.16l0,0z" fill="#E1F4FD" fill-rule="evenodd"/>
     <path clip-path="url(#svg_2)" clip-rule="evenodd" d="m308.17,473.59c0.65,0 1.15,-0.51 1.15,-1.15c0,-0.65 -0.5,-1.23 -1.15,-1.23c-0.65,0 -1.15,0.58 -1.15,1.23c0,0.64 0.5,1.15 1.15,1.15l0,0z" fill="#E1F4FD" fill-rule="evenodd"/>
     <path clip-path="url(#svg_2)" clip-rule="evenodd" d="m194.55,341.61c0.15,2.38 -0.36,4.18 1.59,3.96c2.01,-0.21 1.8,-0.79 2.95,0.79c1.22,1.59 0.43,4.61 3.02,3.82c2.59,-0.79 4.39,-2.38 5.19,-2.02c0.79,0.44 0.79,1.23 2.23,-1c1.37,-2.16 1.58,-3.17 1.58,-3.17c-3.38,7.2 -3.6,8.78 -4.97,7.99c-1.44,-0.79 -1.65,0 -2.8,1.22c-1.23,1.16 -2.6,1.37 -4.04,-0.64c-1.36,-1.95 0,-2.16 -2.59,-1.8c-2.52,0.43 -2.16,-0.58 -2.73,-2.81c-0.58,-2.16 -0.58,-2.16 -2.6,-2.74c-2.01,-0.65 1.01,-2.45 3.17,-3.6l0,0z" fill="#8BB7D3" fill-rule="evenodd"/>
     <path clip-path="url(#svg_2)" clip-rule="evenodd" d="m180.73,319.8c1.94,-1.16 1.8,-2.38 3.74,-0.36c2.02,1.94 2.81,2.52 4.61,2.52s1.8,-1.23 3.02,1.22c1.23,2.38 2.02,3.6 3.96,2.81c2.02,-0.87 3.03,-2.81 4.04,-1.23c1,1.59 0.57,1.23 2.59,0.58c2.01,-0.58 2.23,-2.38 5.4,1.01c3.24,3.38 7.41,7.41 4.39,5.83c-2.95,-1.66 -3.38,-2.59 -5.4,-3.46c-2.02,-0.79 -2.95,-2.16 -1.58,0.44c1.36,2.59 -1.01,4.82 -2.24,2.23c-1.15,-2.67 -4.75,-4.83 -5.97,-3.03c-1.23,1.8 1.8,2.6 -0.79,3.82c-2.6,1.15 -4.97,0.58 -6.41,1.8c-1.37,1.15 -4.61,1.37 -1.8,-0.22c2.81,-1.58 6.41,-3.02 3.6,-4.03s-4.39,-1.8 -4.97,-0.36c-0.65,1.37 -4.61,1.15 -3.02,-0.43c1.58,-1.58 4.6,-3.6 -1.37,-2.59c-5.98,1.01 -8.14,1.58 -9.94,3.24c-1.8,1.58 -4.46,2.16 -2.23,0c2.23,-2.23 4.61,-4.83 -0.22,-1.66c-4.75,3.24 -12.96,5.62 -8.35,2.23c4.54,-3.38 11.16,-4.03 9,-4.17c-2.23,-0.22 -10.01,-2.23 -3.45,-1.8c6.62,0.36 12.45,1.15 13.39,-4.39l0,0z" fill="#91BFDC" fill-rule="evenodd"/>
     <path clip-path="url(#svg_2)" clip-rule="evenodd" d="m238.33,322.03c-2.74,-0.94 -3.39,-0.79 -1.73,0.93c1.58,1.8 1.15,1.66 -0.22,3.03c-1.44,1.44 -2.01,2.81 1.01,2.01c2.88,-0.79 4.68,-1.8 2.88,-2.23c-1.8,-0.36 -2.52,-1.8 -0.79,-1.94c1.8,-0.22 2.45,-2.16 -1.15,-1.8l0,0z" fill="#8BB7D3" fill-rule="evenodd"/>
     <path clip-path="url(#svg_2)" clip-rule="evenodd" d="m217.38,345c-2.16,0.79 -1.37,1.36 -2.38,2.16c-1.01,0.79 -0.58,0.43 -2.38,1.58c-1.8,1.22 -2.59,2.45 0,1.22c2.6,-1.22 4.61,-1.22 4.18,-2.23c-0.36,-0.93 0.43,-0.93 0.58,-2.73l0,0z" fill="#8BB7D3" fill-rule="evenodd"/>
     <path clip-path="url(#svg_2)" clip-rule="evenodd" d="m201.97,314.04c-4.39,-0.8 -15.77,-1.95 -12.39,-0.94c3.39,0.94 6.63,0.36 8.21,1.3c1.59,1 6.91,4.03 3.24,3.02c-3.81,-1.01 -6.05,-2.23 -8.06,-1.01c-1.95,1.23 -4.75,2.59 -0.58,2.38c4.18,-0.22 5.19,-1.01 7.78,0.79c2.59,1.8 3.17,2.02 5.54,2.23c2.45,0.22 3.46,0 4.61,1.01c1.22,1.01 2.81,-1.8 -1.58,-2.59c-4.4,-0.79 -5.98,-2.45 -4.4,-2.23c1.59,0.21 17,6.4 -2.37,-3.96l0,0z" fill="#91BFDC" fill-rule="evenodd"/>
     <path clip-path="url(#svg_2)" clip-rule="evenodd" d="m196.93,365.23c1.37,2.37 2.37,3.96 3.6,2.73c1.15,-1.15 1.94,-0.36 0.57,1.23c-1.44,1.58 -4.03,1.44 -4.17,-3.96l0,0z" fill="#8BB7D3" fill-rule="evenodd"/>
     <path clip-path="url(#svg_2)" clip-rule="evenodd" d="m205.57,376.82c-0.15,2.59 -0.36,4.97 2.37,4.18c2.81,-0.8 2.38,-1.01 2.6,1.36c0.21,2.45 -0.22,3.24 2.01,3.03c2.16,-0.22 3.75,1.01 1.37,1.37c-2.38,0.43 -4.82,0.86 -4.97,-1.59c-0.21,-2.37 0.79,-1.8 -1.44,-2.01c-2.09,-0.15 -6.48,-2.16 -1.94,-6.34l0,0z" fill="#8BB7D3" fill-rule="evenodd"/>
     <path clip-path="url(#svg_2)" clip-rule="evenodd" d="m248.34,328.58c1.15,-1.15 5.18,-2.59 5.54,-0.58c0.43,1.95 0.65,2.52 2.02,2.16c1.44,-0.43 1.8,0.8 2.23,3.39c0.36,2.59 0.79,2.37 1.8,2.59c1.01,0.22 1.94,2.38 0.79,1.58c-1.22,-0.79 -1.58,-0.79 -2.81,-1.15c-1.22,-0.43 -1.22,-0.86 -1.8,-2.81c-0.57,-2.01 -2.01,-2.44 -3.24,-3.02c-1.15,-0.58 0.65,-1.22 -1.15,-1.8c-1.8,-0.5 -2.02,-0.36 -3.38,-0.36l0,0z" fill="#8BB7D3" fill-rule="evenodd"/>
     <path clip-path="url(#svg_2)" clip-rule="evenodd" d="m370.66,364.8c0,-2.96 -0.93,-3.6 -0.79,-4.97c0.22,-1.37 -0.14,-1.37 0.79,-1.8c0.94,-0.43 0.8,-0.58 0.8,-2.02c0,-1.37 -1.16,-5.61 2.8,4.39c0.15,2.02 0,2.81 -1,1.23c-1.01,-1.59 -1.23,-2.38 -1.23,0.57c0,2.96 -1.01,4.4 -1.37,2.6l0,0z" fill="#8BB7D3" fill-rule="evenodd"/>
     <path clip-path="url(#svg_2)" clip-rule="evenodd" d="m389.89,387.84c0.14,-1.37 -0.36,-1.59 1.15,-1.95c1.58,-0.43 1.8,-0.43 2.23,-1.01c0.36,-0.64 0.58,1.01 0,2.02c-0.65,0.94 -1.8,-0.22 -3.38,0.94l0,0z" fill="#91BFDC" fill-rule="evenodd"/>
     <path clip-path="url(#svg_2)" clip-rule="evenodd" d="m408.46,387.04c0.8,-2.37 0.8,-0.72 1.59,-2.16c0.21,-0.43 0,-2.88 0,-3.6c0,-2.37 1.37,3.17 0.79,4.18c-0.58,1.01 -0.79,0.43 -2.38,1.58l0,0z" fill="#91BFDC" fill-rule="evenodd"/>
     <path clip-path="url(#svg_2)" clip-rule="evenodd" d="m395.72,378.04c0.14,-1.36 -0.36,-1.58 1.15,-1.94c1.59,-0.43 1.8,-0.43 2.23,-1.01c0.36,-0.57 0,0.58 -0.64,1.59c-0.58,1 -0.8,-1.01 -2.74,1.36l0,0z" fill="#91BFDC" fill-rule="evenodd"/>
     <path clip-path="url(#svg_2)" clip-rule="evenodd" d="m343.88,397.63c0.36,1.58 -1.8,1.8 1.15,1.94c3.03,0.22 4.39,-1.15 4.25,1.66c-0.22,2.73 -0.86,3.38 0.58,4.39c1.36,1.01 2.37,1.15 2.16,2.16c-0.58,-2.81 -1.8,-1.01 -1.59,-3.6c0.22,-2.59 -1.01,-6.55 -3.6,-5.62c-2.59,1.01 -2.95,0 -2.95,-0.93l0,0z" fill="#91BFDC" fill-rule="evenodd"/>
     <path clip-path="url(#svg_2)" clip-rule="evenodd" d="m298.74,397.2c2.16,0.79 3.6,1.15 3.38,3.74s-1.22,4.25 2.02,4.39c3.16,0.22 2.37,1.23 2.73,2.67c0.43,1.36 1.23,0.93 1.8,1.58c0.65,0.58 0.87,1.8 0.87,1.8c-2.02,-1.8 -3.03,-1.8 -3.6,-3.38c-0.65,-1.66 0,-0.87 -2.45,-1.66c-2.38,-0.79 -2.95,-1.8 -2.59,-4.61c0.43,-2.73 -1.37,-3.6 -2.16,-4.53l0,0z" fill="#8BB7D3" fill-rule="evenodd"/>
     <path clip-path="url(#svg_2)" clip-rule="evenodd" d="m214.93,396.4c2.95,0.15 2.37,-0.14 4.75,1.8c2.45,1.95 3.38,1.8 3.82,0.94c-1.23,2.45 -3.46,2.52 -4.18,0.86c-2.02,-4.39 -3.46,-1 -4.39,-3.6l0,0z" fill="#8BB7D3" fill-rule="evenodd"/>
     <path clip-path="url(#svg_2)" clip-rule="evenodd" d="m204.34,338.23c0.58,0 1.01,-0.43 1.01,-1.01c0,-0.58 -0.43,-1.08 -1.01,-1.08c-0.57,0 -1,0.5 -1,1.08c0,0.58 0.43,1.01 1,1.01l0,0z" fill="#91BFDC" fill-rule="evenodd"/>
     <path clip-path="url(#svg_2)" clip-rule="evenodd" d="m199.74,334.2c0.57,0 1,-0.44 1,-1.01c0,-0.58 -0.43,-1.08 -1,-1.08c-0.58,0 -1.01,0.5 -1.01,1.08c0,0.57 0.43,1.01 1.01,1.01l0,0z" fill="#91BFDC" fill-rule="evenodd"/>
     <path clip-path="url(#svg_2)" clip-rule="evenodd" d="m192.54,371.64c0.57,0 1,-0.44 1,-1.01c0,-0.58 -0.43,-1.08 -1,-1.08c-0.58,0 -1.01,0.5 -1.01,1.08c0,0.57 0.43,1.01 1.01,1.01l0,0z" fill="#C9E3F0" fill-rule="evenodd"/>
     <path clip-path="url(#svg_2)" clip-rule="evenodd" d="m182.31,335.85c0.58,0 1.01,-0.43 1.01,-1.01c0,-0.57 -0.43,-1.08 -1.01,-1.08c-0.57,0 -1.01,0.51 -1.01,1.08c0,0.58 0.44,1.01 1.01,1.01l0,0z" fill="#91BFDC" fill-rule="evenodd"/>
     <path clip-path="url(#svg_2)" clip-rule="evenodd" d="m159.49,318.21c0.57,0 1.01,-0.43 1.01,-1.01c0,-0.57 -0.44,-1.08 -1.01,-1.08c-0.58,0 -1.01,0.51 -1.01,1.08c0,0.58 0.43,1.01 1.01,1.01l0,0z" fill="#C9E3F0" fill-rule="evenodd"/>
     <path clip-path="url(#svg_2)" clip-rule="evenodd" d="m317.46,468.12c0.79,0 1.15,-0.36 2.37,0.36c1.23,0.79 1.37,1 2.38,0.79c-1.37,1.01 -1.59,1.22 -2.59,0.65c-1.01,-0.65 -1.01,-1.8 -2.16,-1.8l0,0z" fill="#C9E3F0" fill-rule="evenodd"/>
     <path clip-path="url(#svg_2)" clip-rule="evenodd" d="m332.86,473.95c1.37,-0.36 1.59,-0.36 2.74,0.14c-1.58,0.43 -1.8,0 -2.74,-0.14l0,0z" fill="#C9E3F0" fill-rule="evenodd"/>
     <path clip-path="url(#svg_2)" clip-rule="evenodd" d="m289.74,456.96c1.8,-0.15 3.74,0.36 5.4,0.93c-4.25,0.22 -4.61,-0.14 -5.4,-0.93l0,0z" fill="#C9E3F0" fill-rule="evenodd"/>
     <path clip-path="url(#svg_2)" clip-rule="evenodd" d="m198.15,309.43c-2.37,-0.79 -3.6,-4.39 -0.79,-4.39c2.74,0 3.96,1.65 7.56,0.79c3.6,-0.79 6.41,-0.36 8.42,2.45c1.95,2.73 5.98,1.94 7.56,2.3c1.59,0.43 4.04,1.58 5.19,3.6c1.22,2.02 2.45,7.2 2.45,7.2s1.58,4.82 2.8,5.62c1.16,0.79 0.36,5.97 -3.24,3.6c-3.6,-2.38 -4.39,-3.6 -6.76,-3.6c-2.45,0 -5.19,-2.81 -4.83,-4.4c0.43,-1.58 -0.79,-4.82 -3.17,-5.18c-2.44,-0.43 -9.64,-2.02 -9.21,-3.6c0.36,-1.66 -2.38,-2.81 -3.6,-2.45c-1.23,0.43 -4.32,0 -2.38,-1.94l0,0z" fill="#FFFFFF" fill-rule="evenodd" stroke="#EFF9FE" stroke-miterlimit="2.61" stroke-width="0.36"/>
     <path clip-path="url(#svg_2)" clip-rule="evenodd" d="m228.54,341.83c-4.76,-0.79 -6.77,6.69 -3.6,7.2c5.18,0.79 3.6,4.61 0,3.6c-2.74,-0.87 -4.97,3.31 -4.4,5.97c0.87,3.6 6.41,3.03 4.4,7.56c-1.23,2.88 -7.13,1.66 -8.79,2.02c-1.58,0.43 -2.37,2.45 -1.94,4.03c0.36,1.59 -0.43,3.17 -0.43,4.39c0,1.23 0.79,2.38 2.37,3.96c1.66,1.66 4.03,1.66 4.03,3.6c0,2.02 0.8,2.02 3.17,1.23c2.45,-0.79 3.6,-3.17 4.83,-4.39c1.15,-1.23 1.94,-1.59 4.75,-1.59s5.18,-3.24 4.75,-5.61c-0.36,-2.38 -0.79,-3.17 0.79,-4.4c1.66,-1.22 3.31,-4.03 3.6,-5.97c0.43,-2.81 -4.75,-7.2 -1.15,-8.07c3.6,-0.79 7.27,-6.33 3.96,-7.99c-1.58,-0.79 -1.94,-3.6 -4.75,-2.81c-1.23,0.36 1.01,-4.39 0.36,-5.9c-1.59,-4.03 -3.96,-2.02 -3.96,-2.02s-3.6,-3.6 -3.6,1.59c0,2.16 -2.45,1.65 -3.6,0c-1.15,-1.59 -3.53,0 -0.79,3.6l0,0z" fill="#FFFFFF" fill-rule="evenodd" stroke="#EFF9FE" stroke-miterlimit="2.61" stroke-width="0.36"/>
     <path clip-path="url(#svg_2)" clip-rule="evenodd" d="m378.87,363c1.15,-2.38 2.74,-0.36 5.19,0c2.37,0.36 3.96,0.79 5.18,3.6c1.22,2.73 0,4.39 1.58,5.97c1.59,1.59 2.02,2.38 0.44,3.96c-1.59,1.66 -4.83,1.23 -6.41,3.24c-1.59,2.02 -2.02,0 -5.62,-1.22c-3.53,-1.15 -6.33,-1.15 -7.56,-4.75c-1.15,-3.6 -1.15,-4.47 2.45,-4.47c3.6,0 2.81,-1.58 2.38,-3.6c-0.36,-1.94 -0.36,-4.32 2.37,-2.73l0,0z" fill="#FFFFFF" fill-rule="evenodd" stroke="#EFF9FE" stroke-miterlimit="2.61" stroke-width="0.36"/>
     <path clip-path="url(#svg_2)" clip-rule="evenodd" d="m205.5,372.64c0.14,-0.93 1.44,-1.08 1.44,-0.07c0.07,1.01 -1.44,1.23 -1.44,0.07l0,0z" fill="#FFFFFF" fill-rule="evenodd"/>
     <path clip-path="url(#svg_2)" clip-rule="evenodd" d="m198.73,372.79c0.14,-0.94 1.44,-1.08 1.44,-0.07c0.07,1 -1.44,1.22 -1.44,0.07l0,0z" fill="#FFFFFF" fill-rule="evenodd"/>
     <path clip-path="url(#svg_2)" clip-rule="evenodd" d="m183.18,341.04c0.14,-0.94 1.44,-1.08 1.44,-0.08c0.07,1.01 -1.44,1.23 -1.44,0.08l0,0z" fill="#FFFFFF" fill-rule="evenodd"/>
     <path clip-path="url(#svg_2)" clip-rule="evenodd" d="m165.54,311.8c0.14,-0.93 1.44,-1.08 1.44,-0.07c0.07,1.01 -1.44,1.23 -1.44,0.07l0,0z" fill="#FFFFFF" fill-rule="evenodd"/>
     <path clip-path="url(#svg_2)" clip-rule="evenodd" d="m159.56,313.39c0.14,-0.94 1.44,-1.08 1.44,-0.07c0.07,1 -1.44,1.22 -1.44,0.07l0,0z" fill="#FFFFFF" fill-rule="evenodd"/>
     <path clip-path="url(#svg_2)" clip-rule="evenodd" d="m296.36,432.12c0.14,-0.94 1.44,-1.08 1.44,-0.08c0.07,1.01 -1.44,1.23 -1.44,0.08l0,0z" fill="#FFFFFF" fill-rule="evenodd"/>
     <path clip-path="url(#svg_2)" clip-rule="evenodd" d="m304.35,434.56c0.15,-0.93 1.44,-1.08 1.44,-0.07c0.07,1.01 -1.44,1.23 -1.44,0.07l0,0z" fill="#FFFFFF" fill-rule="evenodd"/>
     <path clip-path="url(#svg_2)" clip-rule="evenodd" d="m303.13,425.35c0.14,-0.94 1.44,-1.08 1.44,-0.07c0.07,1 -1.44,1.22 -1.44,0.07l0,0z" fill="#FFFFFF" fill-rule="evenodd"/>
     <path clip-path="url(#svg_2)" clip-rule="evenodd" d="m257.55,452.56c0.15,-0.93 1.44,-1.08 1.44,-0.07c0.07,1.01 -1.44,1.23 -1.44,0.07l0,0z" fill="#FFFFFF" fill-rule="evenodd"/>
     <path clip-path="url(#svg_2)" clip-rule="evenodd" d="m245.17,445.36c0.14,-0.93 1.44,-1.08 1.44,-0.07c0.07,1.01 -1.44,1.23 -1.44,0.07l0,0z" fill="#FFFFFF" fill-rule="evenodd"/>
     <path clip-path="url(#svg_2)" d="m261.01,436.29c-1.23,0.36 -2.95,0.65 -3.39,1.59" fill="none" stroke="#000000" stroke-miterlimit="2.61" stroke-width="0.14"/>
     <path clip-path="url(#svg_2)" d="m260,434.78c-0.94,0.36 -2.81,0.86 -3.17,1.3" fill="none" stroke="#000000" stroke-miterlimit="2.61" stroke-width="0.14"/>
     <path clip-path="url(#svg_2)" d="m256.54,434.2c0.36,-0.28 1.3,-0.64 1.8,-0.79c0.44,-0.07 0.94,-0.36 0.94,-0.36" fill="none" stroke="#000000" stroke-miterlimit="2.61" stroke-width="0.14"/>
     <path clip-path="url(#svg_2)" d="m257.7,432.26c-0.65,0.22 -1.08,0.29 -1.44,0.65" fill="none" stroke="#000000" stroke-miterlimit="2.61" stroke-width="0.14"/>
     <path clip-path="url(#svg_2)" d="m340.06,459.62c0.15,-0.94 0.58,-2.02 -0.57,-3.53" fill="none" stroke="#000000" stroke-miterlimit="2.61" stroke-width="0.14"/>
     <path clip-path="url(#svg_2)" d="m343.66,460.63c0,-0.79 0.29,-2.38 -0.79,-3.17" fill="none" stroke="#000000" stroke-miterlimit="2.61" stroke-width="0.14"/>
     <path clip-path="url(#svg_2)" d="m348.7,457.96c0.36,0.29 0.36,0.44 0.65,2.45" fill="none" stroke="#000000" stroke-miterlimit="2.61" stroke-width="0.14"/>
     <path clip-path="url(#svg_2)" d="m184.11,296.47c-0.29,0 -0.57,0 -0.93,0c-2.6,0 -3.96,0.36 -0.58,1.37c3.31,1 3.1,-0.22 4.9,1.58c1.8,1.8 2.01,2.59 3.02,2.81c1.01,0.21 2.02,1.01 0,1.01s-1.58,-1.59 -4.18,-1.8c-2.52,-0.22 -4.32,-2.45 -5.11,-1.8c-0.86,0.57 -2.01,-0.44 -4.46,-0.8c-2.38,-0.43 -4.54,-0.21 -7.2,-0.79c-2.59,-0.65 -1.37,-0.65 -4.54,0.15c-3.24,0.79 -4.03,0 -6.26,0.43c-2.16,0.36 -8.35,4.82 -10.15,5.18c-1.8,0.43 -2.24,1.59 -0.8,1.59c1.37,0 -0.64,0.79 -3.45,1.44c-2.74,0.57 -7.56,4.6 -11.16,5.61c-3.6,0.94 -4.18,1.59 -5.19,3.96c-1,2.38 -2.23,3.82 -3.6,5.62c-1.44,1.8 -5.04,9.21 -4.03,9.36c1.01,0.21 1.44,-1.15 2.81,-3.75c1.37,-2.59 1.01,-3.81 3.17,-4.6c2.23,-0.8 2.66,-1.44 3.6,-3.24c1.01,-1.8 0.86,-2.81 3.24,-2.96c2.37,-0.21 3.38,0 5.18,-1.44c1.8,-1.36 2.59,-2.01 4.61,-2.01s3.82,-0.58 4.39,-1.59c0.58,-1 4.18,-3.16 6.19,-3.6c2.02,-0.36 2.24,-1.58 0.8,-2.37c-1.37,-0.79 -1.16,-2.02 1.44,-1.59c2.59,0.36 9,-0.43 10.8,-0.79c1.8,-0.43 4.17,-1.01 6.4,0.58c2.16,1.58 3.39,2.81 6.41,2.81c2.95,0 9.51,2.16 8.07,2.59c-1.37,0.36 -1.59,0.57 -0.36,1.22c1.22,0.58 0.36,0.94 -0.58,1.37c-1.01,0.43 0.94,1.37 2.74,1.58c1.8,0.22 1.8,2.45 -1.16,3.03c-3.02,0.57 -5.97,1.58 -6.55,3.6c-0.57,2.01 -9.57,4.82 -12.81,5.76c-3.17,1.01 -9.36,5.61 -8.36,6.05c1.01,0.36 -4.03,6.76 -5.25,8.56c-1.15,1.8 -2.59,6.2 -1.95,6.63c0.58,0.36 -0.79,3.6 -1.44,5.97c-0.28,1.3 -1,3.82 -1.44,5.69l1.23,-0.86c0.07,-0.07 0.14,-0.72 0.21,-0.94c1.01,-2.37 3.39,-9.5 3.39,-10.87c0,-1.37 1.22,-3.02 2.66,-4.82c1.37,-1.8 2.38,-5.55 3.75,-6.99c1.44,-1.37 6.84,-5.61 9,-5.4c2.23,0.22 10,-2.16 9.43,-1.37c-0.58,0.8 0.79,1.16 -2.59,3.17c-3.39,2.02 -4.04,4.61 -2.45,5.19c1.65,0.64 4.82,1 4.03,2.44c-0.79,1.37 -1.22,3.39 0.43,3.75c1.59,0.43 -0.43,2.01 1.15,3.02c1.59,1.01 1.23,0.43 2.24,3.03c1,2.59 0.21,3.96 1,4.39c0.72,0.36 -1.44,2.01 -1,3.38c0.28,1.01 -1.37,1.51 -1.52,3.03" fill="none" stroke="#7AAEAB" stroke-miterlimit="2.61" stroke-width="0.72"/>
     <path clip-path="url(#svg_2)" clip-rule="evenodd" d="m181.74,359.61c0.57,0 1,-0.43 1,-1.01c0,-0.57 -0.43,-1.08 -1,-1.08c-0.58,0 -1.01,0.51 -1.01,1.08c0,0.58 0.43,1.01 1.01,1.01l0,0z" fill="#91BFDC" fill-rule="evenodd"/>
     <path clip-path="url(#svg_2)" clip-rule="evenodd" d="m395.07,389.78c-0.14,-2.74 2.74,-2.16 3.6,-1.58c0.79,0.64 2.59,1 3.39,-0.22c0.79,-1.15 3.74,-0.5 3.81,1.01c0,3.67 3.39,0.36 3.17,0.43c1.22,-0.43 1.8,-1.58 2.02,-0.22c0.57,4.32 2.95,1.37 2.95,1.37s-0.87,2.59 4.61,0.58c1.22,-0.43 2.8,1.51 1.8,2.23c-5.19,3.38 1,2.59 2.01,2.59c1.01,0 2.81,0.36 2.02,1.8c-0.79,1.37 -1.59,0 -3.39,-0.65c-1.8,-0.57 0.36,3.03 -0.64,2.45c-1.01,-0.65 -2.81,-2.01 -3.17,-1.44c-0.43,0.58 -1.59,-1.01 -2.38,-2.01c-0.86,-0.94 -2.45,-5.04 -2.45,-1.8c0,0.28 -1.15,4.32 -2.8,0.43c-0.58,-1.37 -1.37,-2.23 -2.16,-1.8c-0.8,0.43 -2.81,0.21 -2.81,0.21s0.79,-3.02 -0.43,-2.8c-1.16,0.21 -1.8,3.81 -2.16,1.36c-0.44,-2.3 -3.1,-2.52 -3.24,-1.58c-0.51,3.17 -1.59,2.45 -1.59,-0.5c0,-0.22 -2.16,3.74 -2.16,0.14l0,0z" fill="#FFFFFF" fill-rule="evenodd" stroke="#D9EBF4" stroke-miterlimit="2.61" stroke-width="0.72"/>
     <path clip-path="url(#svg_2)" clip-rule="evenodd" d="m370.09,392.59c1.37,-1.59 2.88,-1.08 3.67,-0.43c0.79,0.5 3.17,4.68 3.96,3.52c0.86,-1.22 0.86,-2.01 2.02,-1c1.22,1 2.23,0 3.38,-0.44c1.22,-0.36 0.36,-0.72 1.73,-0.5c1.37,0.22 3.6,2.38 3.6,2.38s0,-2.6 3.6,0.43c0.5,0.43 3.89,-1.8 2.23,1.37c-1.58,3.02 0.94,2.66 1.94,2.66c1.01,0 0.44,1.87 2.02,1.8c3.24,-0.22 1.44,2.95 -2.59,1.58c-1.8,-0.64 -2.02,-1.22 -3.03,-1.8c-1,-0.64 -1.58,-3.38 -1.58,-1.22c0,0.72 -1.58,0.79 -2.38,-0.22c-0.79,-1 0.22,-3.74 -2.44,-1.8c-2.6,2.02 -4.18,1.66 -4.04,0.15c0.36,-6.05 -1,0 -1.8,0.36c-0.86,0.43 -2.44,-1.8 -2.44,-1.8s-1.16,3.6 -2.81,-2.81c-0.29,-1.15 -2.81,1.8 -3.17,-0.58c-0.43,-2.3 -1.73,-0.07 -2.66,0.15c-1.01,0.14 -3.6,-2.74 -1.37,-2.74c2.16,0 1.37,0.15 2.16,0.94l0,0z" fill="#FFFFFF" fill-rule="evenodd" stroke="#D9EBF4" stroke-miterlimit="2.61" stroke-width="0.72"/>
     <path clip-path="url(#svg_2)" clip-rule="evenodd" d="m401.91,402.38c-0.93,0.79 0.65,3.67 1.66,1.94c1.01,-1.65 0.72,-1.8 2.23,-1.87c1.51,-0.07 1.94,-0.93 0.36,-1.73c-1.58,-0.79 -2.66,-1.94 -2.02,-2.37c0.72,-0.51 0.22,-1.37 2.24,-0.87c2.01,0.51 3.02,0.87 2.88,0.22c-0.08,-0.58 0.64,-0.58 1.29,-0.5c0.72,0.14 0.94,-0.87 -0.86,-1.52c-1.8,-0.57 -4.11,-1.58 -3.6,-0.64c0.5,0.86 0.29,1.29 -0.72,0.57c-1.01,-0.72 -2.38,-2.01 -2.88,-1.01c-0.51,1.01 1.51,2.02 -0.15,1.8c-1.51,-0.21 -3.31,-1 -3.81,-0.21c-0.51,0.79 -0.65,1.8 0.21,2.01c0.94,0.22 0.44,0.44 -0.07,1.01c-0.5,0.58 -1.01,1.8 0.15,1.8c1.22,0 2.8,-0.72 2.23,-0.07c-0.58,0.58 -1.3,1.37 0.86,1.44l0,0z" fill="#FFFFFF" fill-rule="evenodd" stroke="#D9EBF4" stroke-miterlimit="2.61" stroke-width="0.72"/>
     <path clip-path="url(#svg_2)" clip-rule="evenodd" d="m289.16,407.56c-0.94,0.8 0.65,3.68 1.66,1.95c1,-1.66 0.72,-1.8 2.23,-1.87c1.51,-0.08 1.94,-0.94 0.36,-1.73c-1.59,-0.79 -2.67,-1.87 -2.02,-2.38c0.72,-0.5 0.22,-1.29 2.23,-0.86c2.02,0.5 3.03,0.86 2.88,0.21c-0.07,-0.57 0.65,-0.57 1.3,-0.5c0.72,0.14 0.94,-0.86 -0.86,-1.51c-1.8,-0.58 -4.11,-1.59 -3.6,-0.65c0.5,0.86 0.28,1.3 -0.72,0.58c-1.01,-0.72 -2.38,-2.02 -2.88,-1.01c-0.51,1.01 1.51,2.01 -0.15,1.8c-1.51,-0.22 -3.31,-1.01 -3.81,-0.22c-0.51,0.87 -0.65,1.8 0.21,2.02c0.94,0.21 0.43,0.43 -0.07,1.01c-0.5,0.57 -1.01,1.8 0.14,1.8c1.23,0 2.81,-0.72 2.24,-0.08c-0.58,0.58 -1.3,1.37 0.86,1.44l0,0z" fill="#FFFFFF" fill-rule="evenodd" stroke="#D9EBF4" stroke-miterlimit="2.61" stroke-width="0.72"/>
     <path clip-path="url(#svg_2)" clip-rule="evenodd" d="m226.16,396.04c1.37,-1.58 2.66,0.65 3.46,1.3c0.79,0.58 2.23,0.79 3.02,-0.43c0.79,-1.15 0.79,-1.95 2.02,-0.94c1.15,0.94 2.16,0 3.38,-0.36c1.15,-0.43 0.29,-0.72 1.66,-0.5c1.44,0.14 3.6,2.3 3.6,2.3s0,-2.52 3.6,0.43c0.5,0.36 3.88,-1.8 2.23,1.37c-1.51,3.03 1.01,2.59 2.01,2.59c1.01,0 0.36,1.88 2.02,1.8c3.17,-0.21 3.96,4.61 0,3.24c-1.8,-0.64 -4.61,0 -5.62,-0.64c-1,-0.58 -1.58,-6.2 -1.58,-3.96c0,0.72 -1.66,3.6 -2.45,2.59c-0.79,-1.01 1.23,-5.83 -1.37,-3.82c-2.59,2.02 -4.24,0.79 -4.1,-0.72c0.36,-5.9 -2.02,0 -2.81,0.43c-0.79,0.36 -2.37,-1.8 -2.37,-1.8s-1.01,8.36 -2.67,2.02c0.79,2.95 -1.51,4.32 -2.59,-2.02c-0.36,-2.44 -2.38,-0.72 -3.38,-0.5c-1.01,0.22 -4.61,-3.31 -2.45,-3.31c2.23,0 3.6,0.14 4.39,0.93l0,0z" fill="#FFFFFF" fill-rule="evenodd" stroke="#D9EBF4" stroke-miterlimit="2.61" stroke-width="0.72"/>
     <path clip-path="url(#svg_2)" clip-rule="evenodd" d="m188.36,362.78c-0.94,0.79 0.65,3.67 1.66,1.94c1,-1.65 0.72,-1.8 2.23,-1.87c1.51,-0.07 1.94,-0.93 0.36,-1.73c-1.59,-0.79 -2.67,-1.94 -2.02,-2.37c0.72,-0.51 0.22,-1.37 2.23,-0.87c2.02,0.51 3.03,0.87 2.88,0.22c-0.07,-0.58 0.65,-0.58 1.3,-0.5c0.72,0.14 0.94,-0.87 -0.86,-1.52c-1.8,-0.57 -4.11,-1.58 -3.6,-0.64c0.5,0.86 0.28,1.29 -0.72,0.57c-1.01,-0.72 -2.38,-2.01 -2.88,-1.01c-0.51,1.01 1.51,2.02 -0.15,1.8c-1.51,-0.21 -3.31,-1 -3.81,-0.21c-0.51,0.79 -0.65,1.8 0.21,2.01c0.94,0.22 0.43,0.44 -0.07,1.01c-0.5,0.58 -1.01,1.8 0.14,1.8c1.23,0 2.81,-0.72 2.24,-0.07c-0.58,0.58 -1.3,1.37 0.86,1.44l0,0z" fill="#FFFFFF" fill-rule="evenodd" stroke="#D9EBF4" stroke-miterlimit="2.61" stroke-width="0.72"/>
     <path clip-path="url(#svg_2)" clip-rule="evenodd" d="m275.98,358.39c-0.93,0.79 0.65,3.67 1.66,1.94c1.01,-1.65 0.72,-1.8 2.23,-1.87c1.44,-0.07 1.95,-0.94 0.36,-1.73c-1.58,-0.79 -2.66,-1.94 -2.01,-2.37c0.72,-0.51 0.21,-1.37 2.23,-0.87c2.01,0.51 3.02,0.87 2.88,0.22c-0.07,-0.58 0.65,-0.58 1.29,-0.51c0.72,0.15 0.94,-0.86 -0.86,-1.51c-1.8,-0.57 -4.1,-1.58 -3.6,-0.65c0.5,0.87 0.29,1.3 -0.72,0.58c-1.01,-0.72 -2.38,-2.02 -2.88,-1.01c-0.5,1.01 1.51,2.02 -0.14,1.8c-1.52,-0.21 -3.32,-1.01 -3.82,-0.21c-0.5,0.79 -0.65,1.8 0.22,2.01c0.93,0.22 0.43,0.43 -0.08,1.01c-0.5,0.58 -1,1.8 0.15,1.8c1.22,0 2.81,-0.72 2.23,-0.07c-0.58,0.57 -1.3,1.37 0.86,1.44l0,0z" fill="#FFFFFF" fill-rule="evenodd" stroke="#D9EBF4" stroke-miterlimit="2.61" stroke-width="0.72"/>
     <path clip-path="url(#svg_2)" d="m57.54,375.96c-4.32,22.82 6.48,75.09 41.68,103.6c32.33,29.02 60.77,43.92 122.91,51.2c61.92,-0.8 152.06,-1.23 174.67,0.64c32.47,2.6 62.21,2.31 80.71,-2.44c4.61,-1.37 20.88,-2.24 28.66,-13.32c7.56,-16.78 14.61,-12.32 19.94,-19.52c3.82,-5.18 -11.16,-10.65 -7.49,-15.48c5.98,-6.48 10.8,-7.7 16.71,-10.87c8.06,-5.4 -16.71,-7.41 -11.67,-11.3c2.81,-2.16 17.43,-8.14 12.17,-11.52c-7.05,-4.47 -15.62,-4.54 -11.23,-6.77c8.28,-4.18 13.82,-5.11 17.42,-6.7c3.89,-1.72 -4.39,-2.44 -11.95,-5.83c-2.52,-1.15 13.54,-3.02 -1.15,-5.25c-2.09,-0.36 2.88,-2.24 8.14,-3.32c4.17,-0.93 14.18,-1.94 2.88,-4.39c-11.88,-2.59 -16.64,-4.1 -10.88,-4.82c3.03,-0.43 10.95,-1.15 1.95,-2.31c-7.13,-1 -9.15,-2.08 -5.83,-2.95c9.07,-2.37 34.77,-4.25 9.14,-4.68c-21.02,-0.29 -33.55,0.36 -63.79,-3.67c0,0 -13.32,-2.3 -16.06,-2.95c-2.66,-0.58 -7.41,-1.44 -9.36,-1.87c-1.94,-0.51 -12.09,-2.31 -13.82,-2.88c0,0 -8.21,-2.02 -10.59,-2.74" fill="none" stroke="#000000" stroke-miterlimit="2.61" stroke-width="0.36"/>
     <path clip-path="url(#svg_2)" clip-rule="evenodd" d="m358.11,374.93c3.89,-2.37 6.62,-6.41 6.41,-10.01l20.81,-23.47c3.24,0.22 5.9,-1.51 8.13,-0.93c3.67,0.93 2.95,-0.51 6.48,0.5c3.53,1.08 2.95,1.66 4.9,1.94c2.01,0.29 4.97,-1.08 5.4,-2.37c1.15,-3.53 0.57,-2.38 -0.51,-4.32c2.74,0 5.4,-2.81 4.9,-5.76c-0.58,-3.03 -1.66,-4.39 -4.25,-5.69c1.15,-0.94 3.89,-3.89 1.51,-7.34c-2.8,-3.96 -4.96,-1.37 -9,-2.45c-4.17,-1.08 -4.17,0 -5.18,-3.39c-0.94,-3.38 1.87,-2.08 0.93,-6.26c-2.45,-10.94 -11.51,-8.93 -14.12,-6.84c-1.08,0.94 -0.57,2.16 0.15,3.31c1.29,2.38 2.88,11.23 2.45,15.12c-0.51,4.54 -2.02,3.75 -4.1,8.5c-2.09,4.82 -1.15,9.72 -1.44,12.81l-17.28,22.47c-0.72,-3.31 -6.41,-3.46 -11.23,-3.53l5.04,17.71l0,0z" fill-rule="evenodd"/>
     <path clip-path="url(#svg_2)" clip-rule="evenodd" d="m258.56,345.79c-7.34,-1.15 -9.94,0.57 -10.58,2.95c-4.83,-0.65 -20.09,4.03 -22.83,6.12c-2.73,2.09 -3.89,11.09 -4.32,13.46c-0.43,2.38 -1.08,-1.58 -3.67,1.01c-2.52,2.59 0.58,2.31 -1.01,3.67c-1.51,1.37 -1.15,-1 -3.81,1.08c-2.74,2.02 -1.08,1.59 -3.32,3.96c-2.3,2.45 -13.89,-2.73 -15.84,-2.37c-1.87,0.29 -3.38,6.41 -0.14,7.63c3.31,1.22 11.3,2.81 14.04,3.31c-2.23,1.95 -9.58,4.39 -11.09,6.27c-1.58,1.94 -3.09,4.75 -2.23,5.76c0.79,1.08 4.18,1.94 8.5,1.94c4.32,0 7.34,-6.77 10.44,-5.18c3.09,1.51 0.72,11.66 0.64,13.89c0,2.23 -0.5,4.39 3.1,4.39c3.67,0 3.53,-0.64 5.11,-4.68c1.51,-4.03 -0.57,-12.6 2.59,-14.9c3.1,-2.23 2.24,-2.74 5.04,-1.51c2.74,1.15 0.36,2.3 3.68,3.96c8.56,4.32 11.95,-2.45 12.09,-8.5c0,-2.95 -2.73,-3.17 -3.81,-3.17c-1.01,0 -1.88,1.59 -3.6,1.59c-1.8,0 -3.53,-1.37 -6.12,-3.82c-2.52,-2.45 -3.82,-3.31 -3.82,-4.61c0,-1.22 0.72,0.36 0.86,-2.59c0.15,-2.95 -2.08,-2.23 -1.87,-5.4c0.15,-3.17 2.88,-11.52 4.11,-13.82c2.44,-1.23 14.32,-5.76 17.2,-5.62c0.72,1.8 1.23,3.17 6.99,6.34l3.67,-11.16l0,0z" fill-rule="evenodd"/>
     <path clip-path="url(#svg_2)" clip-rule="evenodd" d="m314.36,262.77c-12.53,11.88 -31.75,36.87 -39.17,50.98c-7.49,14.11 -18.36,37.87 -22.82,54c-4.39,16.2 0.15,39.55 2.13,52.25c1.61,10.32 -1.92,15.79 6.8,18.96c5.25,1.87 23.7,-8.96 20.66,-6.41c12.85,-10.78 30.9,16.82 42.04,22.95c10,5.5 10.5,8.5 22.98,4.98c4.62,-1.3 9.56,-20.61 11.52,-34.48c2.17,-15.33 1,-33 0,-42.5c-2.16,-20.52 -17.5,-53.12 -21.68,-63.56c-4.1,-10.37 -20.8,-41.54 -22.46,-57.17l0,0z" fill="#FFFFFF" fill-rule="evenodd" stroke="#000000" stroke-miterlimit="2.61" stroke-width="4.13"/>
     <path clip-path="url(#svg_2)" clip-rule="evenodd" d="m314.36,264.36c-24.91,20.59 -47.88,60.55 -58.61,92.16c21.1,-12.46 81.23,-7.75 98.58,3.48c-3.31,-14.55 -30.68,-82.47 -39.97,-95.64l0,0z" fill-rule="evenodd"/>
     <g clip-path="url(#svg_2)">
      <defs>
       <path d="m304.5,320.37c-17.86,-0.36 -29.81,11.59 -29.74,27.43c0,15.84 12.82,24.92 28.08,24.12c15.26,-0.79 31.82,-10.8 31.03,-25.77c-0.86,-14.98 -11.52,-25.42 -29.37,-25.78l0,0z" id="svg_4"/>
      </defs>
      <clipPath id="svg_3">
       <use overflow="visible" xlink:href="#svg_4"/>
      </clipPath>
      <path clip-path="url(#svg_3)" d="m334.6,335.82" fill="#F26549"/>
      <path clip-path="url(#svg_3)" d="m333.2,335.82" fill="#F26B4E"/>
      <path clip-path="url(#svg_3)" d="m316.43,335.82" fill="#F8A489"/>
      <path clip-path="url(#svg_3)" d="m292.68,359.58" fill="#F8A489"/>
      <path clip-path="url(#svg_3)" d="m309.45,335.82" fill="#FBBDA6"/>
      <path clip-path="url(#svg_3)" d="m308.05,335.82" fill="#FBC2AD"/>
      <path clip-path="url(#svg_3)" d="m296.87,335.82" fill="#FEEBE2"/>
     </g>
     <path clip-path="url(#svg_2)" d="m408.96,315.58c-3.74,0.3 -15.05,0.51 -12.17,7.28" fill="none" stroke="#666666" stroke-linecap="round" stroke-linejoin="round" stroke-miterlimit="2.61" stroke-width="1.66"/>
     <path clip-path="url(#svg_2)" d="m410.39,324.63c-11.67,-0.94 -16.64,2.16 -12.6,6.98" fill="none" stroke="#666666" stroke-linecap="round" stroke-linejoin="round" stroke-miterlimit="2.61" stroke-width="1.3"/>
     <path clip-path="url(#svg_2)" d="m409.84,336.86c-3.96,-1.73 -14.54,-4.25 -13.24,2.88" fill="none" stroke="#666666" stroke-linecap="round" stroke-linejoin="round" stroke-miterlimit="2.61" stroke-width="1.48"/>
     <path clip-path="url(#svg_2)" d="m304.5,320.37c-17.86,-0.36 -29.81,11.59 -29.74,27.43c0,15.84 12.82,24.92 28.08,24.12c15.26,-0.79 31.82,-10.8 31.03,-25.77c-0.86,-14.98 -11.52,-25.42 -29.37,-25.78l0,0z" fill="none" stroke="#000000" stroke-linejoin="round" stroke-miterlimit="2.61" stroke-width="5.82"/>
    </g>
   </g>
   <g>
    <ellipse cx="304" cy="347.33" fill="#D2007D" rx="30.64" ry="25.93"/>
    <ellipse cx="292.31" cy="338.25" fill="#F067A6" rx="7.78" ry="9.19" transform="matrix(0.6085 0.7936 -0.7936 0.6085 382.8802 -99.5366)"/>
    <ellipse cx="291.08" cy="336.88" fill="#F9CBDF" rx="4.67" ry="5.51" transform="matrix(0.615 0.7885 -0.7885 0.615 377.6837 -99.8338)"/>
    <path d="m304.13,321.59c-17.86,-0.36 -29.81,11.59 -29.74,27.43c0,15.84 12.82,24.92 28.08,24.12c15.26,-0.79 31.82,-10.8 31.03,-25.77c-0.86,-14.98 -11.52,-25.42 -29.37,-25.78l0,0z" fill="none" stroke="#000000" stroke-linejoin="round" stroke-miterlimit="2.61" stroke-width="5.82"/>
    <ellipse cx="309.24" cy="362" fill="#C50076" rx="4.67" ry="5.51" transform="matrix(0.5455 0.8381 -0.8381 0.5455 443.9676 -94.6367)"/>
   </g>
  </symbol>
  <symbol clip-rule="evenodd" fill-rule="evenodd" height="100%" id="svg_9" stroke-linejoin="round" version="1.1" viewBox="0 0 1200 800" width="100%" xml:space="preserve" xmlns="http://www.w3.org/2000/svg" xmlns:serif="http://www.serif.com/" xmlns:xlink="http://www.w3.org/1999/xlink">
   <g id="svg_8">
    <g transform="matrix(1,0,0,1,1009.4,506.362)">
     <path d="m0,-7.2l-12.07,-25.01c0.06,-0.95 0.11,-1.9 0.11,-2.85c0,-28.35 -29.48,-54.47 -79.07,-75.39l0,17.39c-4.84,-1.92 -9.87,-3.78 -15.12,-5.59l0,-8.11c-70.87,-25.56 -176.38,-41.78 -294.24,-41.78c-102.97,0 -196.53,12.38 -265.79,32.56l0,28.24l0,0l0,-34.18c-70.96,22.54 -114.95,53.87 -114.95,88.51c0,5.46 1.1,10.84 3.21,16.11l-7.23,12.87c0,0 -5.79,7.51 4.41,23.36c8.99,13.98 54.05,68.69 77.83,97.34c10.21,14.68 17.14,23.73 17.74,22.86c0.96,-1.39 -6.35,-28.96 -26.63,-60.43c-9.47,-16.89 -20.77,-39.28 -27.56,-55.82c18.95,11.99 130.23,68.03 357.24,67.81c231.99,-0.24 335.11,-72.86 346.43,-82.74c-3.96,15.89 -17.47,48.03 -28.25,70.64c-17.7,32.33 -24.12,60.47 -23.29,61.87c0.52,0.87 6.56,-8.45 15.47,-23.55c20.74,-29.54 60.02,-85.94 67.87,-100.3c8.9,-16.29 3.89,-23.81 3.89,-23.81" fill="rgb(165,43,0)" fill-rule="nonzero"/>
    </g>
    <g transform="matrix(1,0,0,1,1079.49,294.885)">
     <path d="m0,204.13l-79.34,-58.44c-0.75,-2.6 -1.49,-5.2 -2.26,-7.78l26.06,-37.76c2.66,-3.84 3.2,-8.83 1.47,-13.21c-1.73,-4.36 -5.52,-7.48 -9.99,-8.24l-44.07,-7.48c-1.71,-3.49 -3.5,-6.92 -5.29,-10.32l18.51,-42.39c1.91,-4.32 1.51,-9.33 -1.02,-13.25c-2.52,-3.94 -6.79,-6.24 -11.34,-6.06l-44.72,1.62c-2.32,-3.01 -4.67,-6 -7.07,-8.93l10.28,-45.44c1.04,-4.61 -0.27,-9.44 -3.49,-12.79c-3.19,-3.34 -7.83,-4.72 -12.25,-3.64l-43.56,10.71c-2.82,-2.49 -5.69,-4.95 -8.59,-7.37l1.57,-46.64c0.16,-4.72 -2.04,-9.2 -5.81,-11.83c-3.78,-2.63 -8.58,-3.03 -12.71,-1.07l-40.63,19.32c-3.28,-1.88 -6.57,-3.73 -9.9,-5.53l-7.18,-45.97c-0.73,-4.65 -3.72,-8.61 -7.92,-10.41c-4.18,-1.82 -8.97,-1.23 -12.64,1.53l-36.24,27.19c-3.56,-1.19 -7.15,-2.32 -10.77,-3.41l-15.62,-43.58c-1.59,-4.45 -5.25,-7.71 -9.72,-8.63c-4.45,-0.91 -9.03,0.63 -12.11,4.08l-30.5,34.12c-3.69,-0.42 -7.38,-0.81 -11.08,-1.13l-23.55,-39.68c-2.38,-4.01 -6.59,-6.46 -11.14,-6.46c-4.52,0 -8.75,2.45 -11.11,6.46l-23.56,39.68c-3.7,0.32 -7.41,0.71 -11.09,1.13l-30.5,-34.12c-3.09,-3.45 -7.68,-4.99 -12.12,-4.08c-4.46,0.93 -8.13,4.18 -9.7,8.63l-15.63,43.58c-3.62,1.09 -7.21,2.23 -10.78,3.41l-36.22,-27.19c-3.69,-2.77 -8.48,-3.36 -12.67,-1.53c-4.18,1.8 -7.19,5.76 -7.91,10.41l-7.19,45.97c-3.32,1.8 -6.61,3.64 -9.9,5.53l-40.63,-19.32c-4.13,-1.97 -8.94,-1.56 -12.7,1.07c-3.78,2.63 -5.98,7.11 -5.81,11.83l1.56,46.64c-2.9,2.42 -5.76,4.88 -8.59,7.37l-43.56,-10.71c-4.42,-1.07 -9.06,0.3 -12.26,3.64c-3.22,3.35 -4.53,8.18 -3.49,12.79l10.25,45.44c-2.37,2.94 -4.73,5.92 -7.04,8.93l-44.72,-1.62c-4.51,-0.14 -8.82,2.12 -11.34,6.06c-2.53,3.92 -2.91,8.93 -1.03,13.25l18.52,42.39c-1.79,3.4 -3.58,6.83 -5.3,10.32l-44.07,7.48c-4.48,0.75 -8.25,3.87 -9.99,8.24c-1.73,4.38 -1.17,9.37 1.47,13.21l26.07,37.76c-0.2,0.66 -0.39,1.34 -0.59,2.01l-73.69,78.28c0,0 -11.3,8.85 5.14,29.65c14.5,18.36 88.95,91.1 128.27,129.21c16.61,19.35 27.99,31.33 29.18,30.29c1.87,-1.64 -7.98,-36.84 -40.69,-78.15c-25.21,-37.05 -57.94,-94.04 -50.26,-100.61c0,0 8.73,-11.09 26.24,-19.06c0.64,0.51 -0.66,-0.51 0,0c0,0 369.59,170.49 712.43,2.88c39.16,-7.02 62.87,13.96 62.87,13.96c8.18,4.74 -12.99,63.34 -30.41,102.13c-23.67,44.06 -27.15,78.43 -25.14,79.62c1.27,0.76 9.88,-12.35 22.17,-33.22c30.33,-42.25 87.65,-122.8 98.14,-142.37c11.89,-22.18 0,-28.4 0,-28.4" fill="rgb(247,76,0)" fill-rule="nonzero"/>
    </g>
    <g transform="matrix(1,0,0,1,917.896,244.679)">
     <path d="m0,232.47c0,0 53.18,-2.47 123.03,-73.47l9.9,-21.97c0,0 -108.42,-107.85 60.12,-182.3c0,0 -14.76,24.12 -10.43,117.28c0,0 50.82,-17.65 65.72,-99.94c0,0 74.12,97.72 -80.51,189.37c0,0 -72.54,116.29 -174.8,105.15l6.97,-34.12z" fill="rgb(247,76,0)" fill-rule="nonzero"/>
    </g>
    <g transform="matrix(1,0,0,1,676.997,488.361)">
     <path d="m0,-78.19c0,0 36.94,-40.45 73.87,0c0,0 29.02,53.92 0,80.88c0,0 -47.49,37.75 -73.87,0c0,0 -31.66,-29.65 0,-80.88" fill-rule="nonzero"/>
    </g>
    <g transform="matrix(1,0,0,1,719.761,425.169)">
     <path d="m0,0c0,15.75 -9.28,28.52 -20.73,28.52c-11.45,0 -20.73,-12.77 -20.73,-28.52c0,-15.75 9.28,-28.51 20.73,-28.51c11.45,0 20.73,12.76 20.73,28.51" fill="white" fill-rule="nonzero"/>
    </g>
    <g transform="matrix(1,0,0,1,512.148,482.736)">
     <path d="m0,-83.61c0,0 63.35,-28.05 80.65,34.56c0,0 18.11,72.98 -52.03,77.1c0,0 -89.45,-17.23 -28.62,-111.66" fill-rule="nonzero"/>
    </g>
    <g transform="matrix(1,0,0,1,543.968,426.204)">
     <path d="m0,0c0,16.24 -9.57,29.41 -21.38,29.41c-11.81,0 -21.38,-13.17 -21.38,-29.41c0,-16.24 9.57,-29.41 21.38,-29.41c11.81,0 21.38,13.17 21.38,29.41" fill="white" fill-rule="nonzero"/>
    </g>
    <g transform="matrix(1,0,0,1,593.317,576.574)">
     <path d="m0,-40.27l80.8,-6.49c0,0 -2.74,13.01 -13.28,22.77c0,0 -27.79,30.47 -59.68,-2.53c0,0 -5.21,-5.63 -7.84,-13.75" fill-rule="nonzero"/>
    </g>
    <g transform="matrix(1,0,0,1,269.796,270.778)">
     <path d="m0,190.74c-0.67,0 -1.32,0.05 -1.97,0.1c-26.24,-5.97 -99.98,-25.18 -119.47,-56.36c0,0 99.23,-112.87 -55.86,-185.02l18.06,124.88c0,0 -47.81,-31.95 -58.13,-101.35c0,0 -116.42,84.5 51.39,165.48c0,0 15.22,57.18 161.35,102.81l0.1,-0.43c1.47,0.27 2.98,0.43 4.53,0.43c13.81,0 25,-11.31 25,-25.27c0,-13.96 -11.19,-25.27 -25,-25.27" fill="rgb(247,76,0)" fill-rule="nonzero"/>
    </g>
   </g>
  </symbol>
 </defs>
 <g class="layer">
  <title>Layer 1</title>
  <use id="svg_11" transform="matrix(0.548893, 0, 0, 0.548893, -254.844, -214.773)" x="444.44" xlink:href="#svg_6" y="180.99"/>
  <use id="svg_12" transform="rotate(6.42109, 205.225, 119.89) matrix(0.350353, 0, 0, 0.350353, -292.543, -275.203)" x="1261.13" xlink:href="#svg_9" y="1028.55"/>
 </g>
</svg>